<?xml version="1.0" encoding="utf-8"?>
<!-- Generator: Adobe Illustrator 24.3.0, SVG Export Plug-In . SVG Version: 6.00 Build 0)  -->
<svg version="1.1" id="Layer_1" xmlns="http://www.w3.org/2000/svg" xmlns:xlink="http://www.w3.org/1999/xlink" x="0px" y="0px"
	 viewBox="0 0 250 100" style="enable-background:new 0 0 250 100;" xml:space="preserve">
<style type="text/css">
	.st0{fill:none;}
</style>
<rect x="31.2" y="34.6" class="st0" width="187.7" height="12"/>
<g>
	<path d="M48.6,71.6c1.3,0,2.5-0.7,3.5-2c1-1.3,2-3.1,3-5.3c0.9-2.2,1.8-4.7,2.7-7.6c0.9-2.8,1.8-5.7,2.8-8.7c1-3,2-5.9,3.2-8.7
		c1.1-2.8,2.4-5.4,3.8-7.6c1.4-2.3,3-4.1,4.8-5.5c1.8-1.4,3.8-2.1,6-2.2c-1.3-1.4-3-2.6-5.1-3.6c-2.1-0.9-4.7-1.4-7.7-1.4
		c-4.1,0-7.6,0.9-10.5,2.7c-2.9,1.8-5.2,4.1-6.9,6.8c-1.7,2.7-2.9,5.7-3.6,8.9c-0.7,3.2-0.9,6.2-0.7,8.9s0.8,5,1.9,6.8
		c1,1.8,2.4,2.7,4.1,2.7c0.8,0,1.4-0.3,1.9-0.8c0.5-0.6,0.7-1.2,0.7-1.8c0-0.7-0.4-1.3-1-1.8c-0.6-0.6-1.7-0.8-3.2-0.8
		c0-1.3,0.5-2.3,1.5-3.1c1-0.7,2.1-1.1,3.3-1.2c1.2,0,2.3,0.3,3.3,1.1c1,0.8,1.5,2,1.5,3.7c0,1.2-0.3,2.2-0.8,3.1
		c-0.5,0.9-1.2,1.7-2.1,2.4s-1.8,1.2-3,1.6c-1.1,0.4-2.2,0.6-3.4,0.6c-2.8,0-5.2-0.6-7-1.8c-1.8-1.2-3.2-2.8-4.1-4.9
		c-0.9-2-1.3-4.3-1.3-6.9c0-2.6,0.5-5.2,1.4-7.9c0.9-2.7,2.2-5.3,4-7.9c1.8-2.6,3.9-4.9,6.4-6.9c2.5-2,5.5-3.6,8.7-4.9
		c3.3-1.2,6.9-1.8,11-1.8c5.4,0,9.7,0.8,12.9,2.3c3.2,1.6,5.5,3.5,6.9,5.9c1.4,2.4,2.1,4.9,1.9,7.7c-0.1,2.8-0.9,5.3-2.2,7.7
		c-1.3,2.4-3.1,4.3-5.4,5.9c-2.3,1.6-4.8,2.3-7.7,2.3c-1.8,0-3.4-0.3-4.9-0.8c-1.1,3.3-2.3,6.6-3.5,9.9c-1.2,3.3-2.7,6.2-4.4,8.9
		c-1.7,2.6-3.6,4.7-5.7,6.4c-2.2,1.6-4.7,2.4-7.6,2.4c-1.2,0-2.4-0.2-3.6-0.5c-1.2-0.3-2.1-0.9-2.9-1.6c-0.8-0.7-1.3-1.7-1.6-2.9
		c-0.3-1.2-0.2-2.6,0.3-4.4c0.3-1.2,0.9-2.1,1.7-2.7c0.8-0.6,1.8-1.1,2.7-1.3c1-0.2,2-0.2,3,0c1,0.2,1.8,0.6,2.4,1.1
		c0.6,0.6,1,1.3,1.1,2.2c0.1,0.9-0.3,1.9-1.1,3.1c-0.6-0.5-1.2-0.8-1.8-0.8c-0.6,0-1,0.2-1.5,0.5c-0.4,0.3-0.8,0.7-1,1.2
		c-0.2,0.5-0.3,1-0.2,1.5c0.1,0.5,0.4,0.9,0.8,1.3C47,71.5,47.7,71.6,48.6,71.6z M79.4,25.3c-1,0.6-1.8,1.6-2.7,2.8
		c-0.8,1.2-1.6,2.7-2.3,4.4c-0.7,1.7-1.4,3.5-2.1,5.5c-0.7,2-1.4,4.1-2.1,6.2c0.8,0.4,1.6,0.7,2.2,0.8c0.7,0.2,1.3,0.3,1.9,0.3
		c1.6,0,3-0.7,4.2-2c1.2-1.3,2.1-3,2.6-5c0.6-2,0.7-4.2,0.4-6.5C81.5,29.3,80.7,27.2,79.4,25.3z"/>
	<path d="M96.5,40.9c1.8,0,3.2,0.3,4.2,1c1,0.7,1.7,1.7,2.1,2.9c0.4,1.2,0.5,2.7,0.3,4.3c-0.2,1.7-0.6,3.4-1.1,5.3
		c-0.6,1.9-1.4,3.6-2.4,5.3c-1,1.7-2.1,3.1-3.3,4.3c-1.2,1.2-2.5,2.2-3.9,2.9c-1.3,0.7-2.7,1-4,1c-1.8,0-3.2-0.3-4.2-1
		c-1-0.7-1.7-1.7-2.1-2.9c-0.4-1.2-0.5-2.7-0.3-4.3c0.2-1.7,0.6-3.4,1.1-5.3c0.5-1.9,1.3-3.6,2.3-5.3c1-1.7,2.1-3.1,3.3-4.3
		c1.2-1.2,2.5-2.2,3.9-2.9C93.8,41.2,95.2,40.9,96.5,40.9z M89.7,64.9c0.6,0,1.2-0.5,1.8-1.5c0.6-1,1.3-2.3,1.9-3.8
		c0.6-1.5,1.2-3.2,1.7-4.9c0.5-1.8,0.9-3.4,1.1-4.9c0.2-1.5,0.3-2.8,0.2-3.8c-0.1-1-0.5-1.5-1.1-1.5c-0.6,0-1.3,0.5-1.9,1.5
		c-0.7,1-1.3,2.3-1.9,3.8c-0.6,1.5-1.1,3.2-1.6,4.9c-0.5,1.8-0.8,3.4-1,4.9s-0.3,2.8-0.2,3.8C88.8,64.4,89.1,64.9,89.7,64.9z"/>
	<path d="M125.7,41.2l3.6-11.8h6.5l-1.1,3.6c-0.3,1.1-0.7,2.4-1.1,3.8c-0.4,1.4-0.9,2.9-1.3,4.4h4.5v3.2h-5.5l-3.5,11.7
		c-0.8,2.4-1.2,4.3-1.2,5.5c0,1.2,0.4,1.8,1.2,1.8c0.7,0,1.5-0.5,2.3-1.4s1.7-2,2.4-3.2s1.5-2.4,2.2-3.7c0.6-1.2,1.1-2.1,1.4-2.8
		h1.2c-0.4,1.2-1.1,2.6-1.9,4.4c-0.9,1.8-1.9,3.5-3,5.2c-1.1,1.7-2.3,3.1-3.6,4.3c-1.3,1.2-2.6,1.8-4,1.8c-2.2,0-3.6-1-4.4-3.1
		c-0.7-2.1-0.5-5,0.7-8.9l2.4-7.9c-2.7,2.4-5,3.5-7,3.3c-2-0.3-3.1-1.7-3.5-4.4l-6.3,21.3h-6.6l8.2-27.4h6.6l-1,3.2l6.2-4.1
		c-0.2,1.4-0.3,2.6-0.1,3.5c0.1,0.9,0.4,1.6,0.8,2.1c0.4,0.5,0.9,0.8,1.4,0.9c0.6,0.1,1.2,0.1,1.8,0l0.6-2h-1.4l0.6-3.2H125.7z"/>
	<path d="M155,22.7c1.4,0,2.6,0.3,3.5,0.9c0.9,0.6,1.5,1.3,1.8,2.2c0.4,0.9,0.5,1.8,0.3,2.9c-0.2,1-0.5,2-1.1,2.9
		c-0.6,0.9-1.3,1.6-2.3,2.2c-1,0.6-2.1,0.9-3.4,0.9c-1.4,0-2.4-0.4-3-1.3c-0.5-0.9-0.7-1.8-0.5-2.8c0.2-1,0.7-1.8,1.5-2.6
		c0.8-0.7,1.8-0.9,3.1-0.6c-0.3,0.2-0.5,0.5-0.5,0.9c-0.1,0.4-0.1,0.7,0,1c0.1,0.3,0.2,0.6,0.5,0.8c0.2,0.2,0.5,0.3,0.8,0.3
		c0.4,0,0.7-0.3,0.8-0.9c0.2-0.6,0.2-1.2,0.1-1.9c-0.1-0.7-0.4-1.3-0.9-1.9c-0.5-0.6-1.2-0.9-2.1-0.9c-1.2,0-2.4,0.7-3.5,2.1
		c-1.1,1.4-1.9,3.1-2.6,5.3c-0.1,0.4-0.3,1-0.6,1.9c-0.3,0.9-0.6,2-0.9,3.3c-0.4,1.3-0.8,2.7-1.3,4.4c-0.5,1.6-1,3.3-1.4,5l5.9-4.1
		c-0.2,1.7-0.2,3.1,0.1,4c0.3,1,0.8,1.6,1.3,2c0.6,0.4,1.2,0.5,2,0.5c0.8-0.1,1.5-0.3,2.2-0.6c-1.5,1.8-3,3.1-4.4,4
		s-2.7,1.4-3.9,1.5c-1.2,0.1-2.1-0.3-2.8-1c-0.7-0.7-1.2-1.8-1.4-3.3c-0.8,2.9-1.6,5.8-2.5,8.6c-0.8,2.9-1.6,5.5-2.3,7.8
		c-0.8,2.7-1.6,5.3-2.2,7.8h-6.7c1.5-5.4,3-10.5,4.5-15.5c0.6-2.1,1.3-4.3,1.9-6.5c0.6-2.2,1.3-4.3,1.9-6.4c0.6-2.1,1.2-4,1.8-5.8
		c0.6-1.8,1-3.3,1.4-4.6c0.8-2.6,1.7-4.8,2.8-6.4c1.1-1.6,2.3-2.9,3.6-3.8c1.3-0.9,2.6-1.5,4-1.8C152.1,22.8,153.5,22.7,155,22.7z"
		/>
	<path d="M164.1,40.9c1.8,0,3.2,0.3,4.2,1c1,0.7,1.7,1.7,2.1,2.9c0.4,1.2,0.5,2.7,0.3,4.3c-0.2,1.7-0.6,3.4-1.1,5.3
		c-0.6,1.9-1.4,3.6-2.4,5.3c-1,1.7-2.1,3.1-3.3,4.3c-1.2,1.2-2.5,2.2-3.9,2.9c-1.3,0.7-2.7,1-4,1c-1.8,0-3.2-0.3-4.2-1
		c-1-0.7-1.7-1.7-2.1-2.9c-0.4-1.2-0.5-2.7-0.3-4.3c0.2-1.7,0.6-3.4,1.1-5.3c0.5-1.9,1.3-3.6,2.3-5.3c1-1.7,2.1-3.1,3.3-4.3
		c1.2-1.2,2.5-2.2,3.9-2.9C161.4,41.2,162.8,40.9,164.1,40.9z M157.3,64.9c0.6,0,1.2-0.5,1.8-1.5c0.6-1,1.3-2.3,1.9-3.8
		c0.6-1.5,1.2-3.2,1.7-4.9c0.5-1.8,0.9-3.4,1.1-4.9c0.2-1.5,0.3-2.8,0.2-3.8c-0.1-1-0.5-1.5-1.1-1.5c-0.6,0-1.3,0.5-1.9,1.5
		c-0.7,1-1.3,2.3-1.9,3.8c-0.6,1.5-1.1,3.2-1.6,4.9c-0.5,1.8-0.8,3.4-1,4.9s-0.3,2.8-0.2,3.8C156.4,64.4,156.8,64.9,157.3,64.9z"/>
	<path d="M177.4,58.7c-0.6,1.8-0.8,3-0.6,3.5c0.1,0.5,0.4,0.8,0.8,0.9c0.5,0.1,1.2,0,2-0.5s1.5-1.4,2.1-2.6h1.2
		c-0.6,1.5-1.2,2.7-2,3.8c-0.8,1-1.6,1.9-2.4,2.5c-0.8,0.6-1.7,1.1-2.4,1.4c-0.8,0.3-1.5,0.4-2.1,0.4c-0.7,0-1.3-0.1-1.9-0.4
		c-0.6-0.3-1.1-0.7-1.4-1.4c-0.4-0.7-0.5-1.6-0.5-2.8c0-1.2,0.3-2.8,0.9-4.7L181,24.3h6.6c-1.7,5.8-3.3,11-4.7,15.8
		c-0.6,2-1.2,4-1.8,6.1c-0.6,2-1.2,3.9-1.7,5.6c-0.5,1.7-0.9,3.2-1.3,4.4C177.8,57.4,177.5,58.3,177.4,58.7z"/>
	<path d="M188.2,58.7c-0.3,0.9-0.5,1.6-0.6,2.2c-0.1,0.6-0.1,1,0,1.3c0.1,0.3,0.2,0.5,0.4,0.6c0.2,0.1,0.3,0.2,0.5,0.3
		c0.4,0.1,1.1,0,1.9-0.5c0.8-0.5,1.5-1.4,2.1-2.6h1c-0.6,1.5-1.2,2.7-2,3.8c-0.8,1-1.6,1.9-2.4,2.5c-0.8,0.6-1.6,1.1-2.4,1.4
		c-0.8,0.3-1.6,0.4-2.2,0.4c-0.6,0-1.2-0.1-1.8-0.4c-0.6-0.3-1-0.7-1.4-1.4c-0.4-0.7-0.5-1.6-0.5-2.8c0-1.2,0.3-2.8,0.9-4.7
		l5.5-17.9h6.5c-0.8,2.7-1.6,5.2-2.3,7.5c-0.6,2-1.2,4-1.8,6C189,56.3,188.5,57.8,188.2,58.7z M197.7,30.7c0,1.2-0.4,2.2-1.3,3.1
		c-0.9,0.9-1.9,1.3-3,1.3c-1.2,0-2.3-0.4-3.1-1.3c-0.8-0.9-1.3-1.9-1.3-3.1c0-1.2,0.4-2.3,1.3-3.1c0.8-0.8,1.9-1.2,3.1-1.2
		c1.2,0,2.2,0.4,3,1.2C197.3,28.4,197.7,29.4,197.7,30.7z"/>
	<path d="M207.1,40.9c1.8,0,3.2,0.3,4.2,1c1,0.7,1.7,1.7,2.1,2.9c0.4,1.2,0.5,2.7,0.3,4.3c-0.2,1.7-0.6,3.4-1.1,5.3
		c-0.6,1.9-1.4,3.6-2.4,5.3c-1,1.7-2.1,3.1-3.3,4.3c-1.2,1.2-2.5,2.2-3.9,2.9c-1.3,0.7-2.7,1-4,1c-1.8,0-3.2-0.3-4.2-1
		c-1-0.7-1.7-1.7-2.1-2.9c-0.4-1.2-0.5-2.7-0.3-4.3c0.2-1.7,0.6-3.4,1.1-5.3c0.5-1.9,1.3-3.6,2.3-5.3c1-1.7,2.1-3.1,3.3-4.3
		c1.2-1.2,2.5-2.2,3.9-2.9C204.4,41.2,205.8,40.9,207.1,40.9z M200.3,64.9c0.6,0,1.2-0.5,1.8-1.5c0.6-1,1.3-2.3,1.9-3.8
		c0.6-1.5,1.2-3.2,1.7-4.9c0.5-1.8,0.9-3.4,1.1-4.9c0.2-1.5,0.3-2.8,0.2-3.8c-0.1-1-0.5-1.5-1.1-1.5c-0.6,0-1.3,0.5-1.9,1.5
		c-0.7,1-1.3,2.3-1.9,3.8c-0.6,1.5-1.1,3.2-1.6,4.9c-0.5,1.8-0.8,3.4-1,4.9s-0.3,2.8-0.2,3.8C199.4,64.4,199.7,64.9,200.3,64.9z"/>
</g>
</svg>
