<?xml version="1.0" encoding="utf-8"?>
<!-- Generator: Adobe Illustrator 24.3.0, SVG Export Plug-In . SVG Version: 6.00 Build 0)  -->
<svg version="1.1" id="Layer_1" xmlns="http://www.w3.org/2000/svg" xmlns:xlink="http://www.w3.org/1999/xlink" x="0px" y="0px"
	 viewBox="0 0 250 100" style="enable-background:new 0 0 250 100;" xml:space="preserve">
<style type="text/css">
	.st0{fill:#E32326;}
	.st1{fill:#010101;}
</style>
<g>
	<path class="st0" d="M22.3,32.2c1.1,19.4-10.9,9.1-12.7,18.9c0,0,0,17.9,0,17.9c0-1.7-1.6-0.8-2.6-0.6c-0.7,0-1.6-0.5-2.4-0.6
		c-0.2,0.2-0.2,0.3-0.3,0.5l0-48.4C16.7,18.4,22.3,18.4,22.3,32.2z M16.2,32.8c-0.5-4-0.8-9.6-6.7-8.7v16.5
		C15.5,41,15.4,37.3,16.2,32.8z"/>
	<path class="st1" d="M62.6,44.8c-0.2,0-1.6,0.4-1.7,0.4v0.1c0,0,1.4,0.2,1.7,0v25.4h-0.3c-0.2-0.2-0.3-0.1-0.5,0
		c2.1,2.8-0.9,6.1-3.9,6.5c-1.2,0.2-13.9,0.1-15.5,0.1c-0.2-0.1,0-0.4-0.5-0.4c-0.6,0-0.4-0.1-0.3,0.3c-0.1-0.6-1.3-0.9-0.1-1.3
		c-0.2-0.1-0.4-0.4-0.6-0.7c-0.5,0.3-0.3,0.7-0.1,1.1c-0.8,0.7-0.6,0.1-0.4,1.5h-1.4c0-0.3,0.1-0.9,0-1.1c-1,1.5-2.6-0.3-4,0
		c0-0.2-0.1-0.7-0.4-0.9c-0.8,0.2-1.3,0.7-1.5,1.5c-0.2,0-0.4-0.2-0.8-0.5c0,0-0.1,0.1-0.1,0.1c0,0-0.1,0.2-0.1,0.2
		c-2.7,0.2-5.6-0.2-6.8-2.6c-0.9-2.1-1.7-5.4-0.1-7.3c0.1,0.3-0.1,0.4-0.3,0.5c1,0.3,1.8-0.3,2.7,0.6c0.4-0.3,0.7-0.8,1-1.1
		c0,0.7,0.1,1-0.6,1.2c0.3,0.5,0.7,0.4,0.9,0.9c-0.2,0-0.8,0.1-0.9-0.2c-0.3,0.7-0.1,1-0.4,1.7c0.7,0.8,1.9,0.1,2.2-0.7
		c0.7,0.9,1.7,0.1,2.4-0.3c-0.2-0.3-0.7-0.2-0.6-0.7c0.5,0,0.9,0.1,1.2,0.2c0.3-0.5-0.1-0.9,0-1.4c-0.7-0.3-1.8,0.5-2-0.1
		c0.1-0.5,1-0.2,1.4-1c-0.4-0.7-1.4-1.3-1.7-1c0.1,0.1,0.1,0.1-0.2,0.1c-0.6,0.1-0.5-0.6-0.7-0.8c-0.5,0.6-1.8,0.8-2.5,0.4
		c-0.5,0.7-0.3,1.3-1.5,1.5c-0.1,0.1-0.4,0-0.6,0.1l0.6-0.7C23.5,66.9,24.9,47,24.5,46c0.2,0,1.1,0.2,1.4,0.2
		c0.3-0.2,0.4-0.4,0.4-0.7L26,45.1c-2.6,1.8-1.2-9-1.5-10.2c-0.2-1.5,0.3-3.4,0.1-4.9c-0.1-0.1,0.1-0.3,0.4-0.5
		c0-0.2,0.5-0.5-0.1-0.5c-0.6,0-0.2,0.2-0.6,0.2c0.1-2.9,0.6-6.3,0.3-9.2c0.5,0,1.1-0.7,1.5-0.9c-0.2,0.2-0.2,0.4-0.1,0.7l0.2-0.4
		v-0.5c-0.6-0.1-1,0.2-1.6,0.5c0.5-0.7,0.4-1.7,0.6-2.5h0.8c-0.4-3.4,9.8-2.4,11.9-2.2c0,0,3,0,3,0c0.3-0.2,1.7-0.6,1.7,0.3
		c0.3-0.3,0.1-0.3,0.1-0.8h1.3c0,0.5,0.1,0.7,0.2,0.9c0.3-0.1,0.2-0.4,0.1-0.9c3.6,0.4,14.6-1.4,16.9,2.4
		C64,18.3,62.1,41.8,62.6,44.8z M25.1,22.3v-0.6h-0.6v0.6H25.1z M26,42.6c-0.4,0.2-1.1,0.7-1.2,1.1h0.8C25.7,43.5,26.2,42.8,26,42.6
		z M25.7,35.3l-0.3-0.1L25,36l0.3,0.1L25.7,35.3z M25.7,17.8l-0.3-0.1L25,18.3l0.3,0.1L25.7,17.8z M25.1,20.2v0.9
		c0.2-0.3,0.5-1,0.6-1.3L25.1,20.2z M25.7,37.7v-1.1h-0.6v1.1H25.7z M25.9,26.1l-0.3-0.7l-0.3,0.1l0.3,0.5H25.9z M25.7,21.6
		c-0.3,0.6-0.3,1.3-0.3,1.8C25.7,22.9,25.4,22.2,25.7,21.6z M26.1,24.3l-0.3-0.1l-0.3,0.6l0.3,0.1L26.1,24.3z M26.1,34.8l-0.3-0.3
		l-0.2,0.3l0.3,0.3L26.1,34.8z M26.8,21.1l-0.6,0.5c0.1,0.1,0.4,0.3,0.6,0.3L26.8,21.1z M26.9,17.2l-0.3-0.1l-0.3,0.5l0.3,0.1
		L26.9,17.2z M26.8,22.8v-0.6h-0.3l-0.1,0.6H26.8z M27,32.8l-0.3-0.3l-0.3,0.3l0.3,0.3L27,32.8z M27,37.7l0.1-1.1l-0.4,0.1l-0.1,1
		H27z M26.9,34.1c0,0.2-0.3,0.6-0.1,0.9C27.1,34.6,27.1,34.4,26.9,34.1z M27.1,38.8l0.1-0.6h-0.4v0.6H27.1z M27.6,51.7l-0.3-0.1
		L27,52.2l0.3,0.1L27.6,51.7z M27.6,42.2c0,0.2-0.5,0.2-0.6,0.1C27.2,42.9,27.5,42.4,27.6,42.2z M27.8,39.2l-0.3-0.1l-0.3,0.5
		l0.3,0.1L27.8,39.2z M27.8,47.6L27.7,47l-0.3,0.1l-0.1,0.5H27.8z M27.5,21.9l0.6,0.5c-0.1-0.5,0.5-1.5,0.1-2L27.5,21.9z M28.1,46.3
		c0,0.2-0.4,0.2-0.6,0.2C27.7,46.8,28.1,46.6,28.1,46.3z M28,46.3v-0.9h-0.3l-0.1,0.8L28,46.3z M28,50.4v-0.6h-0.3l-0.1,0.6H28z
		 M28.6,18.4v-0.6H28v0.6H28.6z M28.6,38.2c0-0.2-0.4-0.6-0.3-0.7c0,0.1-0.3,0.9-0.3,1C28.2,38.4,28.5,38.2,28.6,38.2z M54.5,42.9
		c0.1-0.5-0.5-0.6-0.7-0.9c1.1-5.9-0.7-21.3-9.5-20.2c-4.4-0.2-4.7-0.9-7.8,3.1c-3.5,3.9-3.1,9.2-3.9,13.8c0.2,1.1,0.7,2.8-0.2,3.8
		c0.2,1.6,0.4,4,0.1,5.6c-0.2-1.8-0.1-3.4-0.2-5.2c-1,0.3-0.8-1-0.9-1.5c-0.6,0.2-0.9,0.3-1,0.1c0.2-0.3,0.1-1-0.1-1.3
		c-0.5,1.3-0.8,2.7-1,4c-0.4,0.1-0.7,0.7-1,0.9l0.6,0.6c0-0.3-0.5-0.5,0.1-0.5c1,0,1.2,1.4,1.6,2c0.2,0,0.5-0.2,0.6-0.3
		c-0.4,0-0.7-0.2-0.8-0.5c0.8,0,1,0.4,1.5,0.8c-1,1.1,0.7,1.5,1,2.4c-0.4,5.9-0.2,13.2,3.3,18.3c2.8,3.3,5,3.3,9.1,3.1
		c8-1.3,8.8-13,8.8-19.2C55,52.4,54.4,43.3,54.5,42.9z M29.9,69.8l-0.3,0.1l-0.6-0.7l0.3-0.3L29.9,69.8z M31.4,60.3v-1
		c-0.4-0.7-1.3-0.9-1.8-1.2c-0.1,0.4,0.4,0.7,0.4,0.9c-0.3,0.4-0.9,0.7-0.8,1.3H31.4z M30.6,45l-0.8,1l-0.3-0.2l0.8-1L30.6,45z
		 M33.2,69.6h-0.6v-1.3l0.6,0.1V69.6z M48.8,54.2c0.5,0.5-0.4,1.2-0.5,1.7c-0.2,1-0.1,2.4-0.1,3.4c0.1-1.1-0.3-1.8-0.9-2.6
		c0.2-0.7-0.6-1-0.8-1.7c-0.4,0.1-0.6,0.6-1,0.9c0,0.3,0.1,0.5,0.3,0.7c0.2-0.3,0.4-0.4,0.6-0.4c-0.1,0.2-0.2,0.7-0.4,0.8
		c-1.9-0.5-2.3-0.2-3,1.5c0.1,0.1,0.2,0.2,0.2,0.3c0,0.4,1,0.1,1.2,0.1c-0.2,0.3,0,1,0,1.3h0.4c0.2,0.2,0.4,0.3,0.6,0.4
		c0.2-0.3,0.1-0.3,0.4-0.6c-0.2-0.2-0.5-0.2-0.7-0.4c1.2-1.1,1.5,0.4,2.3,1.2c0.2,0,0.3-0.4,0.5-0.4c-0.6,2-0.5,4.2-2.6,5.2
		c-1.7,0.4-4.1,1-5.4-1.1c-1.2-2.6-1.2-5.9-1.9-8.7c0.2-1.3,0.2-2.6-0.5-3.8c-0.1-3.3,0.7-6.9-0.3-10.1c1.9-4.2,0.5-9,2.6-13.3
		c2.9-3.1,8.6-0.8,7.7,3.8c1.2,1.4,0,2.7,0.5,4.6c0.2,1.1-0.3,2,0.4,2.7c0.2,0.2,0.3,0.4,0.1,0.6V54.2z M40.9,46.7
		c0.1-0.6-0.6-0.7-1-0.7c0,0.8-0.2,1.4-0.4,2.2c-0.6,0-0.7-0.2-1.2-0.2v1.3h0.9c0.3-0.1,0.8-0.7,1.1-0.7C40.4,48,41,47.3,40.9,46.7z
		 M39.5,72.4v-0.6h-0.6v0.6H39.5z M40.8,43.1c-0.5,0.2-1.1,0.3-1.5,0.5c0.5,0.2,1.3,0.9,1.5,1.5C40.9,44.8,40.8,43.3,40.8,43.1z
		 M41.2,42.1l-1.6-0.5L39.5,42l1.5,0.5L41.2,42.1z M40.4,37.7l-0.3-0.3l-0.2,0.2l0.3,0.3L40.4,37.7z M40.9,73.6
		c-0.3-0.3-0.2-0.9-0.2-1.3h-0.9C39.8,72.8,40.5,73.5,40.9,73.6z M41,49.8l-0.1-1.1h-0.3l-0.1,1.1H41z M41.7,39
		c-0.2-0.1-0.6-0.8-0.9-0.7C41.2,38.8,41.5,39,41.7,39z M43.6,16.8v-0.6H43v0.6H43.6z M45.3,48.1c-0.2-0.2-0.3-0.8-0.3-1
		c-0.6,0.5-1,0.2-0.8,1.3l0.1-0.9C44.9,47.6,44.9,47.9,45.3,48.1z M44.8,16.8h-0.3l-0.3,0.7l0.3,0.1L44.8,16.8z M45.4,49.3
		c-0.3,0-0.5-0.1-0.5-0.5c-0.2,0-0.5,0.4-0.6,0.6c0.3,0,0.5,0.2,0.5,0.5C44.9,49.9,45.4,49.4,45.4,49.3z M45,38.3
		c-0.4,0.1-0.7-0.5-0.7-0.7c-0.2,0.3-0.1,0.8-0.1,1.1C44.4,38.7,44.7,38.3,45,38.3z M44.6,39.1c0,0.1-0.2,0.5-0.3,0.6
		C44.6,39.7,44.9,39.3,44.6,39.1z M45.1,21.1l-0.3-0.3L44.4,21l0.3,0.3L45.1,21.1z M45.1,43.4l-0.3-0.1l-0.3,0.6l0.3,0.1L45.1,43.4z
		 M45.3,62.8L45,62.4l-0.2,0.2l0.3,0.3L45.3,62.8z M45.6,32.3c-0.2,0.2-0.2,0.3-0.3,0.6C45.5,32.9,45.9,32.4,45.6,32.3z M48.5,46.8
		c-0.2-0.2-0.5-0.8-0.5-1c-0.3,0-0.4,0.6-0.7,0.7C47.6,46.5,48.3,46.8,48.5,46.8z M49.9,70.9c-0.2,0-0.9-0.2-1.2-0.2
		C49,70.8,49.6,71.1,49.9,70.9z M57,47.1c-0.6-0.5-1.4-0.3-2.4-0.3v2c0.4-0.1,0.8-0.7,1.1-1c-0.2-0.1-0.6-0.5-0.3-0.7H57z
		 M55.9,24.8l-0.3-0.3l-0.2,0.3l0.3,0.3L55.9,24.8z M56.8,23.9l-0.6-0.3l-0.1,0.3l0.6,0.3L56.8,23.9z M56.8,22.8v-0.6h-0.6v0.6H56.8
		z M57.1,39.8l-0.6-0.3l-0.1,0.3l0.6,0.3L57.1,39.8z M57.1,44.9h-0.3l-0.3,0.8l0.3,0.1L57.1,44.9z M57.5,44.3
		c-0.3,0-0.5-0.1-0.5-0.4c0,0.2-0.3,0.6-0.3,0.7C56.8,44.5,57.3,44.3,57.5,44.3z M57.4,31.6v-0.6h-0.6v0.6H57.4z M58.8,68.5
		c-0.9-1.5,0.8-1-1.4-2.2l-0.6,0.6c0.7,1.2,1.9,2.8,3.3,1.7H58.8z M57.5,29.6c-0.2-0.2-0.3-0.3-0.3-0.4c-0.1,0-0.1-0.1,0-0.2
		C56.9,29,57.3,29.7,57.5,29.6z M57.8,40.1L57.5,40l-0.3,0.6l0.3,0.1L57.8,40.1z M57.4,32.3c-0.2,0.1-0.3,0.7-0.1,0.9
		C57.4,33,57.7,32.5,57.4,32.3z M58.3,48l-0.3-0.1l-0.3,0.6l0.3,0.1L58.3,48z M58.3,52.2l-0.3-0.1l-0.3,0.6l0.3,0.1L58.3,52.2z
		 M60.9,70.9v-0.3l-2.3-0.2v0.4L60.9,70.9z"/>
	<path class="st1" d="M88,71.2c0.3,0.1-0.3,0.5-0.4,0.5c0,0-0.6-0.2-0.6-0.2c-0.2,0.1,0.3,0.8,0.3,0.9c-0.2,0-0.7,0-0.8,0.2
		c-0.2,0.8,0.8,0.4,1.1,0.3c0,0.3,0.2,0.5,0.5,0.5c-0.5,0.7-0.9,1.6-1.2,2.3c-0.2-0.2-0.4-0.2-0.7,0c0-0.2-0.3-0.6-0.3-0.9
		c0.4,0.1,0.6,0.1,1.1-0.2c-0.6-0.6-1.6-0.6-2.1,0L84.5,75c0.2,0.2,0.4,0.3,0.6,0.3v1.1c-0.7-0.1-0.7-0.6-1.3-0.3
		c0.4,0.3,0.5,0.6,0.4,1.1l-0.5,0.5c-0.7-0.4-2.5-1.7-1-2.3c-0.4-0.5-0.7-0.3-1.2-0.5l-0.3,0.3c0.4,0.7,1.1,1.6,1.5,2.4
		c-0.4,0.2-1.3-0.1-1.5-0.5c-0.2,0.2-0.1,0.6-0.1,0.9H61.2c-4.1,0-6.2-2.9-6.1-6.8c0.3,0,0.5-0.2,0.5-0.5c0.9,0.3,2.3,0.1,2.4,1.3
		c0.4-0.1,1.5-1.8,1.8-0.9c0.2,0.6,1.5-0.1,2.1,0c0.2-1,0.3-1.5,0.1-2.5c-0.1,0.1-0.2,0.2-0.2,0.4c-0.8-0.6-1.6-1-1.2-2.2
		c-0.5,0.2-1.3,1.2-2,1.1c-1.2,0.1-1.8,0-2.6-0.9L55.2,68c0.2-4.8-0.1-8.5-0.1-12.8c1.3,1,2.5,0.3,3.9-0.1c0.3,0.1,1.8,1.5,0.8,1.5
		c0.1,0.2,0.2,0.3,0.4,0.5c0.1-0.1,0.4-0.3,0.8-0.5c-0.3-0.4-0.7-0.8-0.8-1.3c0.4,0.7,1.2,0.2,1.8-0.1v-1.4
		c-0.3-0.3-0.7-0.4-1.2-0.4v-0.8c0.1-0.2,0.8-0.3,1-0.3c0.5-2.1,0.1-4,0.2-6.7c-0.3-0.2-0.3-0.9-0.8-0.8c-0.6,0-0.2-0.1-0.5,0.2
		c0.3-0.6,0.7-1.4,1.4-1.8c0.3-1.8-1.3-0.5-2.4-0.6c-0.5-0.7,2-1,2.6-1.1c-0.5-0.7-1.6-2.7-2.5-1.5c-0.2-0.6-1.3-1.3-1.7-1.9
		c-0.4,0.4-0.4,0.8,0,1.2c-0.2,0.5-1,0.6-1.4,0.9c0.2,0.2,0.4,0.1,0.6,0.1c0,0.7-0.1,0.8,0.4,1.3l1.2-0.2c0-0.2-0.6-0.4-0.7-0.6
		c0.4-0.1,1.4,0,1.7,0.2c-0.1,1.4-1.9,1.1-2.9,1.5c-0.2-0.3,0.1-0.8,0-1.1h-0.6c0,0.6,0,1.3-0.3,2.2h-1v-3.3h0.8
		c0.2-0.5-0.2-1,0.3-1.4C54,39.7,55.5,22.6,55.1,22c0-0.5,0.4-0.4,0.7-0.7c0,0-0.1,0-0.1-0.1c-0.1,0-0.2-0.1-0.3-0.1
		c-1.2-9,20.9-4.5,26.1-5.5c3.7,0,6.9,2.9,6.8,6.9c-0.7,0.3-1.6,1-1.2,1.9c0.2-0.1,1-0.7,1-0.9v12.7c-0.2,0.3-1.4,1.2-1.7,0.5
		C86.2,37,86,36.8,85.8,37c0.6,0.5,1.7,0.4,2.2,0.9v13.5c0.3,0.2-0.8,0.3-0.8,0.5c0.2-0.5,0.3-0.6,1.4-0.8V51
		c-0.7,0.1-0.8,0.1-0.9-0.2c-0.7,0.3-1,0.9-1.5,1.4c0.4,0.3,1.4,0.1,1.8-0.1v5.5c0.1,0-0.2-0.3-0.4-0.5c-0.2,0-0.5,0.1-1,0.4
		c0.3,0.4,1.3,0.8,1.3,1.3C88,58.8,88,71.2,88,71.2z M61.1,50.8c0,0.5-0.1,1.2-0.3,1.7c-0.2-0.1-0.6-0.2-0.7-0.2
		c0,0.2-0.3,0.2-0.4,0.3c0.2,0.3,0.6,0.4,1.2,0.3c0.1,0.2-0.2,0.8,0,0.8c-1.2-0.2-2.6-1-3.8-0.4c0,0.3,0.6,0.5,0.5,0.9
		c-0.7,0.3-1.5,0.3-2.3,0.3c0-0.3,1.6-1.6,1.8-1.7c1.2,0.6,2.3-0.4,2.6-1.6c-1.3-1-2.5,0-2.8,1.3c-0.3-0.2-1.2,0.1-1.5,0.2
		c0.2-0.7,0.7-1.4,0.8-2.1c0.8-0.3,0.9-0.5,0.6-1.3c0.6-0.2,1.1-0.5,1.5-1c-0.1-0.3-0.8,0-0.8,0c0.4-0.6,1.5-1.4,0.4-2l1.9-0.7v0.2
		c0.1,0.1,0.1,0.2-0.1,0.3c1.4,1,1.2,2,0.7,3.4c-0.4,0-0.8-0.1-1.1-0.5c0-0.1-0.2,0-0.3,0.1c0.3,0.7,0.1,1.6,1.4,1.5
		c-0.3,0.2-0.4,0.5-0.3,1C60.2,51.2,60.8,50.8,61.1,50.8z M56,33.2l-0.2-0.3l-0.4,0.2l0.2,0.3L56,33.2z M55.6,34.5
		c0,0.2,0.4,0.6,0.6,0.6L55.6,34.5z M56.5,30.1l-0.6-0.5l-0.2,0.2l0.6,0.6L56.5,30.1z M57,56.4h-0.3l-0.3,1.1h0.3L57,56.4z
		 M57.2,69.4l-0.3-0.1l-0.3,0.6l0.3,0.1L57.2,69.4z M57.5,38.3c-0.1,0.2-0.9,0.6-0.8,0.9C57,39.1,57.6,38.6,57.5,38.3z M57.8,45.2
		c-0.1-0.4-0.2-0.9-0.2-1.3c-0.4,0.1-0.3,0.9-0.7,1.2L57.8,45.2z M58.3,31.6l-0.9-0.8v0.8H58.3z M58.2,34.9h-0.3l-0.3,0.7l0.3,0.1
		L58.2,34.9z M58,30v-0.6h0.6V30H58z M59,56.3c0-0.2-0.1-0.7-0.3-0.7C58.4,55.6,58.8,56.4,59,56.3z M60.2,18.4h-0.3l-0.3,0.7
		l0.3,0.1L60.2,18.4z M61.5,35.1l-0.2-0.3l-0.7,0.5l0.2,0.3L61.5,35.1z M62,57v-0.8c-0.2,0.1-0.6,0.8-0.9,0.8H62z M64,74.6
		c0,0.8-0.5,1.2-1.4,1.1C62.9,75.4,63.6,74.7,64,74.6z M86.1,50.9c0-0.5-0.3-0.6-0.6-0.8c0,0.2-0.1,0.4-0.4,0.6
		c-0.1-0.2-0.5-0.6-0.7-0.6c0.1,0.1,0.1,0.5-0.1,0.6c-1-1.1-1.6,0.7-2.4-1.5c0.3-0.4,0.6-0.6,0.9-0.6c0.5-0.4,0.5-1.3,1.1-1.6
		c-0.8-1.1-1.9-0.4-2.5,0.5l-0.1-0.7c0.1-0.2,0.6-0.5,0.8-0.5c-0.6-0.2-1.3-0.2-1.7-0.5c0.1-0.3,0.7-0.5,0.9-0.7
		c-0.8-0.4-0.6-0.8-0.5-1.4c-0.2,0-0.7,0.4-0.9,0.5C79.7,45,80,45.8,80,46.5h-1.1c-0.1-0.1-0.1-0.2-0.1-0.3c0-0.9-0.5-0.7-0.9-1.4
		c0.1-0.1,0.4-0.2,0.7-0.2c-0.4-0.2-1,0-1.4-0.3c1.2-1.6,1.4-4.4,2.3-6c-0.4-1.9-0.5-4.7,0-6.8c-1.1-1.5-0.6-4.2-2.3-5.5
		c0.2-0.6-0.3-1.3-0.1-1.8c-1.4,0.6-3.4-1.7-4.8-1.9c-1.5,0.5-6,0.5-7.7,0.5c-0.6,0-1,0.5-1.5,0.7v46.3c1.5,0.9,3.1,0.7,4.6,0V55.4
		l1.1,0.2c0.1-0.8-0.6-1.4-0.3-2.2c0.1,0.5,0.9,1,1.2,0.4c0-0.2,0.1-0.3,0.4-0.4c1.9,5.5,4,11.1,5.7,16.7c1.7,1.1,3.8,1.2,5.4-0.3
		l-7-21.5c1.3,1.7,0.6,5.3,3.6,4.2c0.5,0,0.8-0.1,1.2,0.3c-1.4,0.3-0.5,1.2-0.8,2.1c-0.4,0.3-0.9,0.4-1.3,0.5c0,0-0.1,0.2-0.1,0.3
		v-0.1c1.4-0.6,2.3,0.4,3.3,1.1c-0.2-0.4,0.8-1.4,1.1-1.5c-0.2,0-0.8-0.3-0.9-0.5v-1.5c0.7-0.7,1-0.6,1.9-0.8l0.4,0.4h0.8
		c0-0.2-0.5-0.3-0.6-0.5c0.6-0.2,1.2,0.3,1.8,0.3l-1.6-0.9c0.5-0.1,0.3-1,0.9-1c0.6,0.1,0.8-0.2,1.2,0.1l-0.7,0.6
		c0.1,0.1,0.5,0.5,0.5,0.7C85.2,51.9,86.2,51.4,86.1,50.9z M75.1,36.2c0,0.7-0.8,2.2-1.2,2.9c0.5,1.6-1.6,6.2-3.5,4.2
		c-0.2,0.3-0.3,0.5-0.1,0.6c-0.3-0.1-1.2,0.3-1.4,0c0,0,0.1,0,0.1-0.1c-0.1,0-0.1-0.1-0.1-0.3L68.2,44c0-0.1-0.1-0.4-0.4-0.7V27.8
		C75,27,73,31.9,75.1,36.2z M68.4,50.9h-0.6v-1.7h0.6V50.9z M68.8,60.3h-0.3L68.1,61l0.3,0.1L68.8,60.3z M70.4,68.8
		c0-0.5-0.5-1.1-0.8-1.5c-0.6,0.2-1,0.2-1.2,0v2.8c0.5,0,0.8,0.1,1,0.2C69.8,69.9,70.4,69.4,70.4,68.8z M69,36.6V36h-0.6v0.6H69z
		 M69.1,40.9L69,40.6l-0.6,0.3v0.3L69.1,40.9z M69.5,51.9c-0.1-0.8-0.9-2-0.5-2.8C69.3,49.9,69.5,51,69.5,51.9z M70.5,75.5
		c-0.2-0.4-0.6-1-1.1-0.9C69.5,75,70.2,75.4,70.5,75.5z M70.2,55c-0.3,0-0.6,0.4-0.6,0.7C69.9,55.5,70.4,55.1,70.2,55z M71.6,34.9
		c0-0.2,0-0.7-0.2-0.9c-0.2,0-0.3,0.2-0.5,0.2c-0.3-0.1-0.2-0.4-0.2-0.6l-0.6,0.5c0.1,0.1,0.5,0.5,0.5,0.7H71.6z M72.2,16.3L72,15.9
		l-0.8,0.3v0.3L72.2,16.3z M72.6,42.3c-0.2,0-0.9-0.1-1.2-0.1c0,0.3,0.4,0.4,0.6,0.7L72.6,42.3z M74.2,37.1v-0.6h-2l-0.1,0.6H74.2z
		 M73.6,16.8v-0.6h-1.2v0.6H73.6z M73,64.7v-0.6h-0.5l0.1,0.6H73z M73.6,39.9l-0.3-0.6L73,39.4l0.3,0.5H73.6z M75.5,70.9
		C75,70.7,74.4,70,74,69.6h1.3C75.4,70.1,75.6,70.3,75.5,70.9z M76.1,46.4c-0.5,0-1.4,0.6-1.7,1C74.9,47.3,75.7,46.9,76.1,46.4z
		 M77.1,52v-0.6h-0.6V52H77.1z M78,45.2l-0.8,0.7l-0.2-0.2l0.8-0.7L78,45.2z M80.4,58.1c-0.9-0.3-1.5-0.1-2.9-0.2
		c0.2,0.2,0.7,0.5,0.9,0.7c-0.1,0.2-0.7,0.2-0.7,0.5h0.9c0.2-0.4,0.6-0.9,1-0.9c0.3,0.3,0.4,0.5,0.4,0.7
		C80.3,58.7,80.4,58.4,80.4,58.1z M80.5,48c-0.3,0,0,0.2-0.6,0.2c-0.8,0.1,0.2-0.6,0.3-0.9c-0.6,0.3-1.3,1.1-1.6,1.7l0.9,0.7
		c0-0.2,0.2-0.4,0.5-0.3l-0.7-0.7C79.7,48.5,80.2,48.4,80.5,48z M79.4,59.2v-0.6h-0.6v0.6H79.4z M79.6,50.7l-0.3,0.6L79,51.1
		l0.3-0.6L79.6,50.7z M81,52.8l-0.1-0.3l-1-0.3v0.3L81,52.8z M80.4,43l-0.1-0.9h-0.3V43L80.4,43z M80.5,41.9V41h-0.6v0.9L80.5,41.9z
		 M81.2,49.1c-0.2-0.3-0.7-0.3-0.9,0c0.2,0.2,0.1,0.6,0.3,0.7C80.6,49.7,81,49.3,81.2,49.1z M82.4,51.9c-0.6,0.2-0.5,0-0.3,0.5
		c-0.4-0.4-1.4-0.3-1.8-0.6c0.1-0.4,0.6-0.3,0.8-0.1c0.6,0,0.7-0.8,1.4-0.9L82.4,51.9z M85.3,70.3c-0.1,0.5-1.3,1.6-1.7,1.1
		c0.1-0.1,0-0.1-0.3-0.1c-1.7,1.4-2.1-1.9-2.7-3l0.6-0.5c0.3,0.9,1.4,0.4,1.6-0.4c0.5,0.5,1.1,1.5,1.3,2.2
		C84.6,69.7,85.2,69.8,85.3,70.3z M81.7,64.9l-0.1-0.3l-0.5,0.3v0.3L81.7,64.9z M82.8,43.9c-0.3,0-1-0.4-1.1-0.6
		C81.9,43.3,82.7,43.7,82.8,43.9z M82.3,44.7l-0.1-0.4h-0.6v0.3L82.3,44.7z M82.8,75.4c0.2,0.1-0.2,0.6-0.2,0.9
		c-0.3,0-0.4-0.1-0.6-0.3C82.2,75.8,82.6,75.4,82.8,75.4z M83.7,24.1c-0.4,0-0.8-0.1-1.4-0.3l-0.1,0.9C82.7,24.4,83.2,24,83.7,24.1z
		 M83.1,55.9l0.1-0.6h-0.8l-0.1,0.6H83.1z M82.8,39.4c0,0.3-1,0.5-0.1,0.7c0,0.1,0.1,0.1,0.2,0L82.8,39.4z M84,45.1l-1.1-0.3
		l0.1-0.3l1,0.3V45.1z M86.9,55.1c-0.3,0-0.5,0-0.7-0.3c0.2-0.1,0.4-0.2,0.6-0.2c-1.2-1-2.2,0.7-3.5,0.9l1.5,0.3
		C85,55,86.2,55,86.9,55.1z M86.2,23.7c-0.4,0.2-0.8,0.1-1-0.1v-0.7c-0.5,0-1.2,0.3-1.7,0.3C84.2,23.5,85.8,24.8,86.2,23.7z
		 M84.6,46.4L84.3,47L84,46.9l0.3-0.5L84.6,46.4z M86.2,49.2c-0.4-0.3-1.3-0.7-1.8-0.7c0.2,0,0.9-0.4,1-0.6
		C85.7,48.3,86,48.6,86.2,49.2z M85,74l-0.3-0.3l-0.2,0.2l0.3,0.3L85,74z M85.7,37.1v-0.6h-1.2l0.1,0.6H85.7z M86.6,70.7
		c-0.9,1.8-0.8,0.6-1.8,1.4C85.4,72.2,86.6,71.4,86.6,70.7z M85.7,43.2v-1.3L85.1,42v1.2H85.7z M85.3,72.9c0.1-0.4,0.9-0.2,0.9,0
		H85.3z M86.3,56.1v-0.3l-1.2-0.3v0.3L86.3,56.1z M86.9,52.8c-0.5-0.2-1.3-1-1.3,0.1C85.8,52.7,86.7,53,86.9,52.8z M86.2,22.9
		c0,0.1-0.1,0.1-0.2,0.1c0.1,0,0.9-0.2,0.6-0.4L86.2,22.9z M87.3,62.5c-0.7,0.2-0.9,0.7-1.1,1.3c0.3-1.2,1.6,0,1.9-1.3H87.3z
		 M87.9,54.4L87.5,54l-0.2,0.2l0.3,0.3L87.9,54.4z"/>
	<path class="st1" d="M115.3,44.9c-0.7,2.2,0.9,11.8-1.1,12.3c-1.4,0.8-4.1-1.2-4.7,0.4c1.3,0.2,2.6,0.4,3.9,0.4
		c0,0.2-0.1,0.8,0.1,1c0.1-0.1,0.2-0.2,0.2-0.4h0.8c0.1,0.1,0.4,0.5,0.6,0.5v2.3c-0.2,0-0.6,0-0.8,0.1l0.8,0.8
		c-0.5-0.1-0.9,0.6-1.2,0.9c0.2,0.7,0.6,1.1,1.2,1.3v3c0.1,0.2-0.4,0.5-0.5,0.5c0-0.2,0.2-0.5,0.2-0.7c-0.3-0.3-0.5-0.4-0.6-0.4
		c-0.2,0.2,0.1,0.4,0.1,0.6c-0.8,0.3-1.7,0.2-2.6,0.3c0,0.2-0.3,0.2-0.4,0.3c1,0,3.4,1,3.8-0.1v4.3c0.6,0.5,0.1,0.8-0.2,1.1
		c0.3,2.8-3.2,4.4-5.7,4.5c-0.4,0-0.2-0.2-0.1-0.4c0-0.1-0.8-0.1-0.6,0.1c0.1,0.1,0.1,0.2,0.1,0.3c-0.6,0-1.4,0.1-2.3-0.5h-1.7
		c-0.5,1.1-0.7-0.9-2.1,0.2c-0.2,0.2-0.5,0.3-0.8,0.3c-0.6,0.1-0.3-0.7-1-0.4c0.8,1-2.9,0-3.4-0.2l-0.5,0.4
		c-0.2-0.2-0.4-0.7-0.7-0.8c-0.6,0.7-1.1,1.1-1.8,0.2c-0.4,0.4-1.3,0.3-0.7,0.9c-0.7,0-1.5,0-2.1-0.5c-0.1,0.1-0.2,0.2-0.2,0.4
		c-3.1-0.1-7.2-1.4-5.9-5.1c-0.1-0.2-0.8-0.2-0.9-0.2v-5.1H87c0.2,0.3-0.1,0.6,0.5,0.6c0.5-0.1,0.6,0.4,0.8,0.6
		c1-1.8-2.2-1.4-3.2-1.4l-0.2-9.6c3.3-0.3,6.5,0.2,9.6-0.5c-3.4-0.4-6.3-0.3-9.9-0.5V38.3c0.4,0,0.8-0.1,1.4-0.5c0-0.4-1,0-0.8-0.3
		V19.9c-0.6-2.5,4.9-3.7,6.3-3.7c0,0,17.5,0,17.5,0c3.8,0.6,5.8,1.9,6.9,5.6v15.1c-0.5,0-0.8-0.4-1.2-0.4V37
		c0.4,0.3,1.3,0.9,0.6,1.7c-0.2,0-0.1-0.3-0.3-0.4c-0.2,0-0.7,0.4-0.9,0.4c0.1-0.1-0.2-1.6,0.2-1.1c0.1,0.2,0.2,0.1,0.2-0.1
		c0-0.6-0.6-0.6-1-0.8c0,0.8,0.1,1.5,0.3,2.1c-0.1,0-0.2,0-0.2-0.1c0.1-0.1-1-0.2-0.8,0c0.1,0.1,0,0.1-0.3,0.1
		c-0.7,0.1-0.5,0.4-1.4-0.2c-0.2,0.2-0.1,0.4-0.4,0.6c0.8,0.2,1.5,0.2,2.4,0.2c-0.2,0.2-0.5,0.3-0.7,0.6v-0.3c0,0,0,0.1,0.1,0.2
		c1.3-0.5,1.6-1.1,2.8,0.1v4.4c-0.3,0.1-0.5,0.4-0.9,0.6C114.4,44.9,115,44.9,115.3,44.9z M86.1,27.6l-0.3-0.1l-0.3,0.6l0.3,0.1
		L86.1,27.6z M86.2,23.8l-0.3-0.1l-0.3,0.5l0.3,0.1L86.2,23.8z M86.8,27.4c0,0-0.3-0.4-0.3-0.5C86.3,26.8,86.7,27.4,86.8,27.4z
		 M89.4,24.6C89,24.8,88,25,87.8,25.4C88.2,25.3,89.1,24.8,89.4,24.6z M90.5,38.1c-0.4,0.2-1.2,0.3-1.7,0.3
		C89.3,38.6,90.5,39,90.5,38.1z M108.3,23.5c-0.7-0.1-1.3-0.7-2-0.7c-1.5,0.3-15.3-0.7-16.2,0.7c0,1.7,0,2.8,0.3,4.2h6.3v43
		c1.5,0.1,4.1,1.2,4.6-0.7c0.8-1-1.9-43.7,1.8-42.5c0.9,1,3.7,0,5,0.2C108.3,26.4,108.3,25.2,108.3,23.5z M91.6,30.6l-0.1-0.3
		l-0.6,0.3v0.3L91.6,30.6z M96.1,67c-1.6,0.8-4.2-0.7-5.2,1.1c0.9-1,3.8,0,5.2-0.5V67z M92.7,37.7v-0.6h-0.6v0.6H92.7z M92.5,77.6
		c-0.2-0.1-0.3-0.6-0.3-0.7C92.4,77.1,92.6,77.5,92.5,77.6z M96.1,38.8v-0.4l-1.7-0.3v0.4L96.1,38.8z M95.6,36.1
		c-0.2,0-0.7,0.7-0.8,0.8C95.3,36.7,95.6,36.4,95.6,36.1z M96.3,57.1c-0.5-0.2-1.1,0-1.5,0.2C95.2,57.1,95.9,57.1,96.3,57.1z
		 M96.1,68.5V68h-0.6v0.6H96.1z M102.5,57.5h-0.6V57h0.6V57.5z M106.7,68.1c-1.2-0.4-2.3-0.5-3.5-0.5c-0.1-0.2,0.5-0.5,0.1-0.5
		c-0.4,0.2-0.9,0.5-1.4,0.3v1.1c0.8,0,1.7-0.9,2.1-0.1C105.1,68.1,105.9,68.1,106.7,68.1z M103.6,17.3v-0.6h-1.2v0.6H103.6z
		 M104.2,36.1v-0.3l-1.2-0.3v0.3L104.2,36.1z M104.2,57.5V57H103v0.6H104.2z M104.7,74.6h-0.3l-0.3,0.7l0.3,0.1L104.7,74.6z
		 M104.8,77.3h-0.6v-0.6h0.6V77.3z M108.2,77.4c-0.5,0-1,0-1.5,0.2c-0.4-0.6-1.2-1.2-1.7-1.5c1.5,0.4,1.9,1,3.2-0.1V77.4z
		 M105.4,52.6c-0.2,0.3-0.2,0.6,0,0.9c0.2,0,0.9-0.7,1.1-0.9H105.4z M106.7,38.5c0.2,0.4,0.6,0.3,0.9,0.3L106.7,38.5z M107.7,57.5
		v-0.3l-0.6-0.1v0.4H107.7z M111,68c-0.5,0-0.9,0-1.3-0.2c0.3-0.3,0.4-0.6,0.1-0.8c-0.8,0.4-1.8,0.8-2.6,1H111z M108.9,33.4
		l-0.3-0.3l-0.3,0.3l0.3,0.3L108.9,33.4z M109.1,16.8l-0.3-0.1l-0.3,0.5l0.3,0.1L109.1,16.8z M109.1,54.2l-0.3-0.3l-0.2,0.2l0.3,0.3
		L109.1,54.2z M109.3,27.5l-0.3-0.3l-0.2,0.3l0.3,0.3L109.3,27.5z M110,41v-0.6h-0.6V41H110z M111.1,28.3v-0.6h-0.6v0.6H111.1z
		 M113.4,25.5c-0.5,0.3-1.5-0.2-1.9,0.1c0.7-0.2,0.4,0.7,0.3,0.9c0.1-0.2,0.5-0.6,0.7-0.7l0.6,0.5C113.1,26,113.2,25.7,113.4,25.5z
		 M112.3,25v-0.6h-0.6V25H112.3z M112.3,33.3v-1.1h-0.6v1.1H112.3z M112.8,31.1l-0.3-0.1l-0.3,0.6l0.3,0.1L112.8,31.1z M113,27.6
		l-0.3-0.1l-0.3,0.6l0.3,0.1L113,27.6z M113,29.4l-0.3-0.7l-0.3,0.1l0.3,0.5H113z M112.9,41v-0.6h-0.6V41H112.9z M112.8,48.8
		c0.2-0.4,0.4-0.7-0.3-0.9C112.5,48.1,112.7,48.6,112.8,48.8z M113.2,45.2l-0.3-0.1l-0.3,0.5l0.3,0.1L113.2,45.2z M113.2,26.8
		l-0.3-0.3l-0.2,0.3l0.3,0.3L113.2,26.8z M113.9,29.5c-0.4,0.2-1.1,0.4-1.2,0.8C113,30.1,113.7,29.7,113.9,29.5z M113.4,33.8v-1.1
		h-0.6v1.1H113.4z M114.3,31.3c0-0.2-0.2-0.4-0.2-0.7c-0.2,0-0.6,0.3-0.8,0.3c0,0.4,0.3,1.1,0.3,1.5c0.2-0.3,0.1-1,0.3-1.4
		C114,31,114.2,31.1,114.3,31.3z M113.5,34.3c0,0.1-0.2,0.5-0.3,0.6C113.4,34.9,113.7,34.4,113.5,34.3z M114,41v-0.6h-0.6V41H114z
		 M113.4,36v-0.6h0.6V36H113.4z M113.9,47.6l-0.3-0.6l-0.3,0.1l0.3,0.5H113.9z M113.9,54.8l-0.3-0.9l-0.3,0.1l0.3,0.8H113.9z
		 M114.7,48c0,0.2-1,0.3-1,0.5C113.9,48.5,114.6,48.3,114.7,48z M114,50.5c-0.1,0.1-0.2,0.3-0.3,0.5c0,0-0.1,0.1-0.1,0.2
		C113.9,51.2,114.2,50.8,114,50.5z M114.4,52l-0.3-0.6l-0.3,0.1l0.3,0.5H114.4z M114.8,33.1l-0.6-0.6l-0.2,0.3l0.6,0.5L114.8,33.1z
		 M114.6,54.8v-0.6H114v0.6H114.6z M114.9,60.1l-0.3-0.1l-0.3,0.6l0.3,0.1L114.9,60.1z M115.3,42.5l-0.3-0.2l-0.6,0.8l0.3,0.2
		L115.3,42.5z M115.1,50l-0.3-0.1l-0.3,0.6l0.3,0.1L115.1,50z M115.2,56.4v-0.6h-0.6v0.6H115.2z M115.3,43.6l-0.3-0.1l-0.3,0.6
		l0.3,0.1L115.3,43.6z M115.2,71.3c-0.4,0-0.5,0.4-0.6,0.7C114.7,71.9,115.1,71.5,115.2,71.3z M115.6,63.4l-0.3-0.1l-0.3,0.6
		l0.3,0.1L115.6,63.4z"/>
	<path class="st1" d="M137.6,73.4c0.2,2.5-2.9,7.2-5.8,5.5c-0.3,0.2-0.4,0.4-0.4,0.6c-1.5-0.2-13.3,0.4-14.3-0.3
		c0.2-0.2-0.1-0.6-0.3-0.7c-0.1,0.1-0.1,0.2,0.1,0.4v1.1h-1.3c0-0.3-0.1-0.6-0.3-0.8c-0.5,0.2-1.1,0.4-1.4,0.9
		c-4.2-1.7-3.3-7.3-3.3-10.8c0.3,0.2,0.5,0.6,0.9,0.3c-0.2-0.4-0.5-0.5-0.9-0.5v-1.9c0.5-0.5,1.7-0.2,2,0.6c0.7-0.5,1.5-0.1,2.2-0.4
		c0-0.8-1.1-0.4-1.5-0.3c-0.6,0-2.1-0.8-2.7-1.1v-3.9c1.3,0.4,1.1-0.3,0-0.5c0.4-1.5-1.1-42.3,1.1-41.8c4.3-4.4,12-1.2,17.2-2.3
		c0,0.2-0.1,0.4-0.4,0.5c0.3,0.3,0.4,0.1,0.6,0.4c0.4,0,0.5-0.6,0.6-0.9c1.7,1.7,1.9-0.9,5.7,1.2c0,0.2-0.1,0.4-0.4,0.6l2.1,1.4
		c-0.4,0.1-1.2-0.2-1.3-0.6c-0.2,0.2-0.6,0.3-0.6,0.7c1.2,0.2,2.7,0.4,2.5,2c0,0,0,15.7,0,15.7l-1.1-0.2l-0.4,0.3
		c0.1,0.6,1,0.7,1.4,0.3v24.8c-0.5-0.2-1.1-0.4-1.6-0.9c-0.2,0.2-0.1,0.5-0.2,0.9c-1.9,1-0.4-1.2-2.9,0c0-0.2,0-0.3,0.2-0.5
		c-0.6-1-1.8-0.9-2.5-0.1v1.5c0.1,0.1,0.2,0.2,0.1,0.2c0,0.3,1,0,1,0c0.1,0.3,0.4,0.9-0.2,1.2l0.4,0.3h0.8c0.2-0.2,0.2-0.7,0.4-1
		l1.1,0.3c-0.3,0.3-0.5,0.8-0.9,1.1c0.2,0.3,0.7-0.1,0.8-0.3c-0.2,2.3,1.4,1.5,3,1.4C137.7,69.5,137.6,71.1,137.6,73.4z M111.9,60.3
		c-0.1-0.2-0.2-0.5-0.3-0.7l-0.6,0.7H111.9z M112.3,64.1c-0.6-1.2,0.8-2.4-0.1-3.4c0.3,0.9-0.3,1-0.5,1.5c0,0,0,2.2,0,2.2
		C111.9,64.4,112.2,64.2,112.3,64.1z M116.3,38.1c-0.7,0.1-1.3-0.4-1.7-0.6v0.7h-2.4c0.3,0.2,2-0.1,1.7,0.4c-0.1,0.8,2-0.5,2.5-0.3
		L116.3,38.1z M113.5,40.4l-0.1-0.2l-0.5,0.2v0.3L113.5,40.4z M115.3,58.7c0-0.2-0.3-0.9-0.3-1.1c-0.1,0.5-0.8,0.3-1,0.6
		C114.4,58.4,115,58.4,115.3,58.7z M115.8,61c-0.3-0.4-0.9-0.5-1.2-0.8c-0.1,0.1-0.6,0.9-0.6,1.1C114.4,61.1,115.4,61.2,115.8,61z
		 M116.3,76.8c-1,0.4-1.2,0.3-1.3-0.7c0,0.2-0.1,0.3-0.3,0.5c-0.2,0-0.3-0.1-0.4-0.2c-0.3,0.5,0.3,1.2,0.4,1.5h0.8
		C115.7,77.7,116.1,77,116.3,76.8z M115.7,46h-0.8c-0.5,1.4-1,3-0.4,4.4C115.3,49.1,116,47.5,115.7,46z M116.3,52.6l-1-0.9
		c-0.4,0.7-1.1,1.2-1.2,1.9c0.7,0.4,1.6,1.2,2.3,1.6V52.6z M115.2,70.7h-1.1c0.3,0.1,0.8,0.7,1.1,0.8V70.7z M115.2,55.3v-0.6h-0.6
		v0.6H115.2z M116.6,65.7l-0.9-0.3v0.3l0.8,0.3L116.6,65.7z M131.5,23.7c-0.5-0.1-1.7-0.7-2-0.9c-1.6,0.2-11.5-0.6-12.6,0.7v46.6
		c1.7,0.3,3.5,0.3,5.2-0.3c0.1-1.7-0.2-3.2,0.6-4.9v-0.9V55c0.2-1.6-0.5-5.1,0.1-6.3c2.6-0.2,4.9-0.3,7.9-0.3
		c-0.4-1,0.1-1.7-0.1-3.6c-2.5-1.8-7.3,0.9-8.5-2.4c0.1-1.5,0-13.9,0.7-15.1c2.9-0.2,5.4-0.3,8.7-0.3
		C131.3,26.2,131.6,25.5,131.5,23.7z M129.5,55.6c-1.7-0.7-0.1-2.6-1-3.7c-1.2,0.1-1.1-0.9-2-0.9c-0.5-0.1-1.3,0.9-1.9,0.7
		c0.3,1.4-1.3,2.4-2.1,3.4c2.1,1.5,3,0.8,5.4,0.7c0.9,0,3,1.7,2.1-0.4L129.5,55.6z M128.2,66.6c-1,0-2.8-0.5-2.6-1.8
		c-0.5-0.2-0.9-0.7-1.1-1.4c-0.5,0.5-1.2,0.6-1.7,0.7v3.4c0.7,0.2,1.2,0.9,1.7,1.2c0.7-0.6,1.8-2.5,2.7-1.6
		C127.3,67.6,128.3,67.1,128.2,66.6z M123.3,65.2l-0.6,0.1v-1.1h0.6V65.2z M124.3,70.4c-0.5,0.2-1.2,0.5-1.6,0.9
		c0.2,0.2,0.4,0.3,0.6,0.3C123.6,71.2,124.2,70.9,124.3,70.4z M127,41.9c-0.3,0.2-0.3,0.1-0.6,0.1c-0.2-1,0-1.8,0-2.6
		c-0.3,0-0.7,0-0.9-0.2c-0.1-0.4,0.7-0.9,1-1.1c-0.4-0.2-0.7-0.3-0.9-0.3c-0.8,0.5-0.2,1.3-0.7,2c-0.3,0-0.3-0.1-0.5-0.2
		c0,0.4,0,1.3-0.4,1.5c-0.3,0-0.6-0.1-0.7-0.2L123,43c0.8-1.2,1.8,0.9,2.9,0.1C126.4,42.7,126.2,42.2,127,41.9z M124.5,39.4
		l-0.3-0.7l-0.3,0.1l0.3,0.5H124.5z M126.7,69.6v-0.6H125v0.6H126.7z M126.7,54.8c0-0.4,0.6-1.1,0.6-1.5c0.2,0.4,0.4,1.1,0.6,1.5
		H126.7z M127.3,70.2v-0.6h-0.6v0.6H127.3z M128.8,60.4l-0.9-0.3v0.3l0.8,0.3L128.8,60.4z M129,68.1l-0.2-0.3l-0.8,0.5l0.2,0.3
		L129,68.1z M128.5,40.5v-0.6h-0.6v0.6H128.5z M133.1,67.2c-1.6,0-2.4-0.1-4.2-0.3c0.7,0.6,1.9,0.7,2.8,1
		C131.8,66.8,132.4,67.4,133.1,67.2z M130.7,17.6l-0.3-0.1l-0.3,0.6l0.3,0.1L130.7,17.6z M131.1,20.9l-0.1-0.3l-0.8,0.3v0.3
		L131.1,20.9z M131.3,66.9v-0.6h-0.6v0.6H131.3z M132.5,70.2v-0.6h-1.2v0.6H132.5z M133.4,75l-0.3-0.3l-0.2,0.3l0.3,0.3L133.4,75z
		 M134.7,71.9c-0.2,0-0.5,0.2-0.6,0.3c0,0.3,0.3,1,0.5,1.3C134.7,73,134.7,72.4,134.7,71.9z M137.4,67c0.1-0.6-0.5-1.1-0.2-1.7
		C137.4,65.7,137.4,66.6,137.4,67z"/>
	<path class="st1" d="M171.8,44.8c-0.4,0-1.5,0.3-1.7,0.4v0.1c0,0,1.1,0.2,1.2,0v25.4h0.1c-0.2-0.2-0.3-0.1-0.5,0
		c2.1,2.8-0.9,6.1-3.9,6.5c-1.2,0.2-13.9,0.1-15.5,0.1c-0.2-0.1,0-0.4-0.5-0.4c-0.6,0-0.4-0.1-0.3,0.3c-0.1-0.6-1.3-0.9-0.1-1.3
		c-0.2-0.1-0.4-0.4-0.6-0.7c-0.5,0.3-0.3,0.7-0.1,1.1c-0.8,0.7-0.6,0.1-0.4,1.5h-1.2V77c0,0-0.2-0.2-0.3-0.3c-1,1.5-2.6-0.3-4,0
		c0-0.2-0.1-0.7-0.4-0.9c-0.8,0.2-1.3,0.7-1.5,1.5c-0.2,0-0.4-0.2-0.8-0.5c0,0-0.1,0.1-0.1,0.1c0,0-0.1,0.2-0.1,0.2
		c-2.7,0.2-5.6-0.2-6.8-2.6c-0.9-2.1-1.7-5.4-0.1-7.3c0.1,0.3-0.1,0.4-0.3,0.5c1,0.3,1.8-0.3,2.7,0.6c0.4-0.3,0.7-0.8,1-1.1
		c0,0.7,0.1,1-0.6,1.2c0.3,0.5,0.7,0.4,0.9,0.9c-0.2,0-0.6,0.1-0.7-0.2c-0.3,0.7-0.1,1-0.4,1.7c0.7,0.8,1.9,0.1,2.2-0.7
		c0.7,0.9,1.7,0.1,2.4-0.3c-0.2-0.3-0.7-0.2-0.6-0.7c0.5,0,0.9,0.1,1.2,0.2c0.3-0.5-0.1-0.9,0-1.4c-0.7-0.3-1.8,0.5-2-0.1
		c0.1-0.5,1-0.2,1.4-1c-0.4-0.7-1.4-1.3-1.7-1c0.1,0.1,0.1,0.1-0.2,0.1c-0.6,0.1-0.5-0.6-0.7-0.8c-0.5,0.6-1.8,0.8-2.5,0.4
		c-0.5,0.7-0.3,1.3-1.5,1.5c-0.1,0.1-0.4,0-0.6,0.1l0.6-0.7c-2.2,0.2-0.8-19.8-1.2-20.8c0.2,0,0.9,0.2,1.2,0.2
		c0.3-0.2,0.4-0.4,0.4-0.7l-0.3-0.4c-1.7,1.2-1.9-3.8-1.3-4.6c0-0.4,0-6.3,0-6.4c0-1.2-0.4-2.6,0-3.7c-0.1-0.5-0.4-0.5,0.2-0.9
		c0-0.2,0.5-0.5-0.1-0.5c-0.6,0-0.2,0.2-0.6,0.2c0.1-2.9,0.6-6.3,0.3-9.2c0.5,0,1.1-0.7,1.5-0.9c-0.2,0.2-0.2,0.4-0.1,0.7l0.5-0.4
		v-0.5c-0.9-0.1-1.1,0.2-1.9,0.5c0.5-0.7,0.4-1.7,0.6-2.5h0.8c-0.4-3.4,9.8-2.4,11.9-2.2c0,0,3,0,3,0c0.3-0.2,1.7-0.6,1.7,0.3
		c0.3-0.3,0.1-0.3,0.1-0.8h1.3c0,0.5,0.1,0.7,0.2,0.9c0.3-0.1,0.2-0.4,0.1-0.9c3.6,0.4,14.6-1.4,16.9,2.4
		C173.2,18.4,171.2,41.7,171.8,44.8z M133.6,22.3v-0.6h0.6v0.6H133.6z M134.9,42.6c-0.4,0.2-1.1,0.7-1.2,1.1h0.8
		C134.6,43.5,135.1,42.8,134.9,42.6z M134.6,35.3l-0.3-0.1l-0.3,0.8l0.3,0.1L134.6,35.3z M134.6,17.8l-0.3-0.1l-0.3,0.5l0.3,0.1
		L134.6,17.8z M134.2,20.2v0.9c0.2-0.3,0.5-1,0.6-1.3L134.2,20.2z M134.8,37.7v-1.1h-0.6v1.1H134.8z M134.9,26.1l-0.3-0.7l-0.3,0.1
		l0.3,0.5H134.9z M134.7,21.6c-0.3,0.6-0.3,1.3-0.3,1.8C134.6,22.9,134.4,22.2,134.7,21.6z M135.1,24.3l-0.3-0.1l-0.3,0.6l0.3,0.1
		L135.1,24.3z M135,34.8l-0.3-0.3l-0.2,0.3l0.3,0.3L135,34.8z M135.7,21.1l-0.6,0.5c0.1,0.1,0.4,0.3,0.6,0.3L135.7,21.1z
		 M135.8,17.2l-0.3-0.1l-0.3,0.5l0.3,0.1L135.8,17.2z M136,22.8v-0.6h-0.5l-0.1,0.6H136z M136,32.8l-0.3-0.3l-0.3,0.3l0.3,0.3
		L136,32.8z M136,37.7l0.1-1.1l-0.4,0.1l-0.1,1H136z M135.8,34.1c0,0.2-0.3,0.6-0.1,0.9C136,34.6,136.1,34.4,135.8,34.1z
		 M136.3,38.8l0.1-0.6H136v0.6H136.3z M136.5,51.7l-0.3-0.1l-0.3,0.5l0.3,0.1L136.5,51.7z M136.5,42.2c0,0.2-0.5,0.2-0.6,0.1
		C136.1,42.9,136.4,42.4,136.5,42.2z M136.7,39.2l-0.3-0.1l-0.3,0.5l0.3,0.1L136.7,39.2z M136.7,47.6l-0.1-0.6l-0.3,0.1l-0.1,0.5
		H136.7z M136.5,21.9l0.6,0.5c-0.1-0.5,0.5-1.5,0.1-2L136.5,21.9z M137,46.3c0,0.2-0.4,0.2-0.6,0.2C136.6,46.8,137,46.6,137,46.3z
		 M137.1,46.3v-0.9h-0.3l-0.1,0.8L137.1,46.3z M137.1,50.4v-0.6h-0.5l-0.1,0.6H137.1z M137.1,18.4v-0.6h-0.6v0.6H137.1z M137.6,38.2
		c0-0.2-0.4-0.6-0.3-0.7c0,0.1-0.3,0.9-0.3,1C137.1,38.4,137.4,38.2,137.6,38.2z M163.7,42.9c0.1-0.5-0.5-0.6-0.7-0.9
		c1.1-5.9-0.7-21.3-9.5-20.2c-4.4-0.2-4.7-0.9-7.8,3.1c-3.5,3.9-3.1,9.2-3.9,13.8c0.2,1.1,0.7,2.8-0.2,3.8c0.2,1.6,0.4,4,0.1,5.6
		c-0.2-1.8-0.1-3.4-0.2-5.2c-1,0.3-0.8-1-0.9-1.5c-0.6,0.2-0.9,0.3-1,0.1c0.2-0.3,0.1-1-0.1-1.3c-0.5,1.3-0.8,2.7-1,4
		c-0.4,0.1-0.7,0.7-1,0.9L138,46c0-0.3-0.5-0.5,0.1-0.5c1,0,1.2,1.4,1.6,2c0.2,0,0.5-0.2,0.6-0.3c-0.4,0-0.7-0.2-0.8-0.5
		c0.8,0,1,0.4,1.5,0.8c-1,1.1,0.7,1.5,1,2.4c-0.4,5.9-0.2,13.2,3.3,18.3c2.8,3.3,5,3.3,9.1,3.1c8-1.3,8.8-13,8.8-19.2
		C164.1,52.4,163.5,43.3,163.7,42.9z M138.8,69.8l-0.3,0.1l-0.6-0.7l0.3-0.3L138.8,69.8z M140.6,60.3v-1c-0.4-0.7-1.3-0.9-1.8-1.2
		c-0.1,0.4,0.4,0.7,0.4,0.9c-0.3,0.4-0.9,0.7-0.8,1.3H140.6z M139.5,45l-0.8,1l-0.3-0.2l0.8-1L139.5,45z M142.3,69.6h-0.6v-1.3
		l0.6,0.1V69.6z M157.9,54.2c0.1,0.5-0.6,1.2-0.7,1.7c-0.2,1,0.2,2.4,0.1,3.4c-0.2-1-0.5-1.8-1.1-2.6c0.2-0.7-0.6-1-0.8-1.7
		c-0.4,0.1-0.6,0.6-1,0.9c0,0.3,0.1,0.5,0.3,0.7c0.2-0.3,0.4-0.4,0.6-0.4c-0.1,0.2-0.2,0.7-0.4,0.8c-1.9-0.5-2.3-0.2-3,1.5
		c0.1,0.1,0.2,0.2,0.2,0.3c0,0.4,1,0.1,1.2,0.1c-0.2,0.3,0,1,0,1.3h0.4c0.2,0.2,0.4,0.3,0.6,0.4c0.2-0.3,0.1-0.3,0.4-0.6
		c-0.2-0.2-0.5-0.2-0.7-0.4c1.2-1.1,1.5,0.4,2.3,1.2c0.2,0,0.3-0.4,0.5-0.4c-0.6,2-0.5,4.2-2.6,5.2c-1.7,0.4-4.1,1-5.4-1.1
		c-1.2-2.6-1.2-5.9-1.9-8.7c0.2-1.3,0.2-2.6-0.5-3.8c-0.1-3.3,0.7-6.9-0.3-10.1c1.9-4.2,0.5-9,2.6-13.3c2.9-3.1,8.6-0.8,7.7,3.8
		c1,0.7,0.2,1.8,0.4,2.7c0,0.9,0.2,3.1,0.1,4.2C158.5,39.5,157.7,53.5,157.9,54.2z M150.1,46.7c0.1-0.6-0.6-0.7-1-0.7
		c0,0.8-0.2,1.4-0.4,2.2c-0.6,0-0.7-0.2-1.2-0.2v1.3h0.9c0.3-0.1,0.8-0.7,1.1-0.7C149.5,48,150.1,47.3,150.1,46.7z M148.7,72.4v-0.6
		h-0.6v0.6H148.7z M149.8,43.1c-0.5,0.2-1.1,0.3-1.5,0.5c0.5,0.2,1.3,0.9,1.5,1.5C149.9,44.8,149.8,43.3,149.8,43.1z M150.1,42.1
		l-1.6-0.5l-0.1,0.3l1.5,0.5L150.1,42.1z M149.3,37.7l-0.3-0.3l-0.2,0.2l0.3,0.3L149.3,37.7z M150,73.6c-0.3-0.3-0.2-0.9-0.2-1.3
		h-0.9C148.9,72.8,149.6,73.5,150,73.6z M149.9,49.8l-0.1-1.1h-0.3l-0.1,1.1H149.9z M150.7,39c-0.2-0.1-0.6-0.8-0.9-0.7
		C150.1,38.8,150.4,39,150.7,39z M152.7,16.8v-0.6h-0.6v0.6H152.7z M154.2,48.1c-0.2-0.2-0.3-0.8-0.3-1c-0.6,0.5-1,0.2-0.8,1.3
		l0.1-0.9C153.8,47.6,153.9,47.9,154.2,48.1z M153.8,16.8h-0.3l-0.3,0.7l0.3,0.1L153.8,16.8z M154.3,49.3c-0.3,0-0.5-0.1-0.5-0.5
		c-0.2,0-0.5,0.4-0.6,0.6c0.3,0,0.5,0.2,0.5,0.5C153.9,49.9,154.4,49.4,154.3,49.3z M154.1,38.3c-0.4,0.1-0.7-0.5-0.7-0.7
		c-0.2,0.3-0.1,0.8-0.1,1.1C153.6,38.7,153.8,38.3,154.1,38.3z M153.6,39.1c0,0.1-0.2,0.5-0.3,0.6C153.6,39.7,153.9,39.3,153.6,39.1
		z M154,21.1l-0.3-0.3l-0.3,0.2l0.3,0.3L154,21.1z M154.1,43.4l-0.3-0.1l-0.3,0.6l0.3,0.1L154.1,43.4z M154.3,62.8l-0.3-0.3
		l-0.2,0.2l0.3,0.3L154.3,62.8z M154.5,32.3c-0.2,0.2-0.2,0.3-0.3,0.6C154.4,32.9,154.8,32.4,154.5,32.3z M157.4,46.8
		c-0.2-0.2-0.5-0.8-0.5-1c-0.3,0-0.4,0.6-0.7,0.7C156.5,46.5,157.2,46.8,157.4,46.8z M158.8,70.9c-0.2,0-0.9-0.2-1.2-0.2
		C157.9,70.8,158.6,71.1,158.8,70.9z M166.1,47.1c-0.6-0.5-1.4-0.3-2.4-0.3v2c0.4-0.1,0.8-0.7,1.1-1c-0.2-0.1-0.6-0.5-0.3-0.7H166.1
		z M164.9,24.8l-0.3-0.3l-0.2,0.3l0.3,0.3L164.9,24.8z M165.8,23.9l-0.6-0.3l-0.1,0.3l0.6,0.3L165.8,23.9z M165.4,22.8v-0.6h0.6v0.6
		H165.4z M166,39.8l-0.6-0.3l-0.1,0.3l0.6,0.3L166,39.8z M166,44.9h-0.3l-0.3,0.8l0.3,0.1L166,44.9z M166.4,44.3
		c-0.3,0-0.5-0.1-0.5-0.4c0,0.2-0.3,0.6-0.3,0.7C165.7,44.5,166.2,44.3,166.4,44.3z M166.6,31.6v-0.6H166v0.6H166.6z M167.9,68.5
		c-0.9-1.5,0.8-1-1.4-2.2l-0.6,0.6c0.7,1.2,1.9,2.8,3.3,1.7H167.9z M166.5,29.6c-0.2-0.2-0.3-0.3-0.3-0.4c-0.1,0-0.1-0.1,0-0.2
		C165.8,29,166.3,29.7,166.5,29.6z M166.7,40.1l-0.3-0.1l-0.3,0.6l0.3,0.1L166.7,40.1z M166.3,32.3c-0.2,0.1-0.3,0.7-0.1,0.9
		C166.3,33,166.6,32.5,166.3,32.3z M167.2,48l-0.3-0.1l-0.3,0.6l0.3,0.1L167.2,48z M167.2,52.2l-0.3-0.1l-0.3,0.6l0.3,0.1
		L167.2,52.2z M169.5,70.9v-0.3l-2.3-0.2v0.4L169.5,70.9z"/>
	<path class="st1" d="M192.6,67.2c2.1,11.2-5.2,11.8-14.4,11.2c-4.7-0.1-12,1.3-12.9-4.8c0.6-3.4,0.1-6.3,0.1-10.6h0
		c0.1-0.2,0.2,0,0.3,0.1c0.4-0.7,1.5,0,0.9-1.1c0,0.6-1.3,0.4-1.8,0.4V43.9c0.6-0.5,2.5,0.3,2.6-0.3c-0.1-0.2-0.1-0.3,0-0.4
		c2.3-0.1,0.4,0.3,1.2,0.5c0.3,0,0.4-0.1,0.3-0.2c0.3-0.6,1.7,0.2,2.4-0.2c-0.3-0.9-2.6-0.5-3.3-0.7c-0.8,0.3-2,0.2-2.8-0.3
		c0.3-0.2,0.8-0.8,0.8-1.2l0.7,0.7c0.1-0.9-1.3-1.7-1.7-2.6c0-0.2,0.2-0.1,0.3-0.4c-1-1.3-0.9-4.1,0.4-5.2c-0.2-0.3-0.5-0.4-0.9-0.4
		c0.1-1.8-0.4-6.9,0.8-8.5c0.8-0.3,3.1,1.1,2.9,0.4c-0.3-0.4,0.6-0.1,0.8,0c0-0.3,0.2-0.4,0.4-0.6c-1.4-1.2-3.4,0-4.9-1
		c-0.3-7.9,9.8-5.8,15.2-6.1c6.5-0.2,13.5-0.8,12.5,7.6c-0.7-0.7-1.2,0.2-2.5,0c0,0-0.1,0-0.5,0.1c0.4,0.3,1.1,0.1,1.5,0.2
		c0.3,0.5,1.1,0.9,1.5,1.3v21.2c-1.7,0-1,2.7-1.2,3.7c0.5-0.1,0.8-0.3,1.2-0.4v1.6c-0.6-0.2-1.8,0.1-2.5,0.1
		c-0.1,0.2-0.4,0.3-0.4,0.5c1,0,1.9,0.6,2.9,0.6v9.5c-2.5,0.1-4.2,0.1-6.2,0c-0.3-0.1-0.5-0.1-0.5,0.2c0.7,0,2.4,1,2.9,0.4
		c-0.1-0.3,1-0.2,1-0.1c0.4,0.2,1.2,0.1,1.7,0.2c-0.1,0.5,0.4,0.6,0.6,1c0.3-0.2,0.3-0.6,0.6-0.6v0.8l-0.3-0.2l-0.4,0.3
		c0.8,1.1,0.5,0.5-0.4,1.3c0.2,0.2,0.7,0.1,0.9,0.1L192.6,67.2z M167.4,54.2c-0.5-0.4-0.9-1.2-1.6-0.8c0.4,0,1.2,1,1.2,1.3
		C167.1,54.4,167.2,54.3,167.4,54.2z M166.6,73.1l-0.6,0.3V73l0.5-0.3L166.6,73.1z M166.8,64.1l-0.3,0.5l-0.3-0.1l0.3-0.6
		L166.8,64.1z M168.5,28.3c-0.4,0.7-0.6,1.4-1.2,2c-0.2,0-0.5-0.3-0.7-0.5l-0.3,1.7c1-0.4,1.6-0.7,2-0.7c0-0.5,0-0.9,0.5-1.3
		L168.5,28.3z M168.5,25.5c-0.5,0.2-1,0.1-1.5,0.3c0.6,0.7,1.7,0.7,1.5,1.9C168.7,26.9,168.7,26.2,168.5,25.5z M168.1,20.2
		c0.1-0.4-0.7-0.6-0.8-0.9C167.2,19.5,167.9,20.2,168.1,20.2z M170.6,50.1c-0.6,0.2-1.1,0-1.7,0c-0.2,0.5-0.1,1.1-0.6,1.5
		c-0.3-0.3-0.6-0.4-0.8-0.4c0.3,0.3,1,1,1.4,1.1c0.2-0.7,1.1-1.1,1.8-1.1V50.1z M167.7,53.7v-1.1h0.6v1.1H167.7z M168.8,56.1
		c-0.2-0.5-0.3-1.4-0.8-1.7C167.3,55.1,168,56.1,168.8,56.1z M168.9,60.9c0,0.2-0.1,0.3-0.2,0.5c-0.1-0.1-0.1-0.2,0-0.3
		c0.1-0.1,0-0.1-0.3-0.1c-0.5,0-0.5,0.2-0.7,0.5V63c0.2,0,0.6,0.2,0.8,0.2c0.3-0.8,0.4-1.7,0.4-2.6V60.9z M168.8,64.3
		c-0.2,0-0.9-0.3-1-0.5v2.8c0.2,0,0.7-0.1,0.8-0.3C167.8,65.7,168.6,64.9,168.8,64.3z M168.9,32.2v-1.1h-0.6v1.1H168.9z M169,42
		c0-0.2-0.2-0.6-0.2-0.8c-0.2,0-0.4,0.4-0.4,0.6C168.6,41.8,168.8,42,169,42z M169.2,52.5c-0.3,0.4-0.6,0.6-0.8,0.6
		c0.2,0.3,0.3,1.2,0.6,1.5C169.2,54.1,169.3,53.1,169.2,52.5z M169.5,21.2c0-0.1-0.5-0.9-0.5-1c-0.3,0.2-0.1,0.9-0.1,1.3
		C169,21.4,169.4,21.3,169.5,21.2z M169.4,23.4c-0.2,0-0.4-0.2-0.5-0.3C168.6,23.3,169.3,23.4,169.4,23.4z M170,64.8l-0.6-0.1v-0.5
		l0.6,0.1V64.8z M171.3,49.7c0-0.3-0.1-1.1-0.3-1.3c-0.1,0.1-0.6,0.9-0.6,1.1C170.7,49.4,171.2,49.5,171.3,49.7z M171.8,62
		c0,0-0.6,0.2-0.7,0.3c0.3,0.2,0.4,0.6,0.7,0.8L171.8,62z M171.8,39.6c-0.4,1-1.2,1,0,2V39.6z M186.2,68.6c-0.9-1-6.3-0.5-7.5-0.6
		c-0.6-0.6-1.3-1.1-1.6-1.8l0.4-0.4c1.4,0.9,2.9,0,4.3,0.2c0,0.1,0.2-0.5,0.3-0.5c-0.4-0.2-0.8-0.7-1.4-0.7c-0.6,1.4-2,0.2-3.2,0.3
		l-0.2-40.5c-1.8-0.3-3.3-0.7-5,0.3v46.6c1-0.3,13.5,0.7,13.9-0.7V68.6z M175.8,18.4v-0.6h0.6v0.6H175.8z M177.5,22.4l-0.2-0.3
		c0,0.5,0,0.5,0.2,0.7C177.5,22.8,177.5,22.6,177.5,22.4z M181.8,26.1c-0.8-1.1-1-2.3-1.8-3.3c-0.1,1.1-1.5,1.3-2.4,1.6v3l1.2,0.6
		c0.3,1-0.7,1.2-1.3,1.7c0.1,0.1,0.2,0.4,0.3,0.5c0.1,0,0.4-0.1,0.8-0.4c0.2,0.1,0.3,0.6,0.6,0.6c-0.2-1.1,0.5-2.5,1.1-3.4
		c-0.1,0-0.3,0.1-0.5,0.3c-0.3-0.7-0.4-1.1-0.6-1.8l0.6-0.5h0.8c0.1,0.4,0.6,0.8,0.4,1.3C181.1,26.3,181.5,26.1,181.8,26.1z
		 M177.7,22.8l-0.3,0.8c0.5-0.2,1.2-0.5,1.6-0.8H177.7z M184.1,43.4c-0.4-0.1-1-0.8-1.5-0.8c-0.5,0.4-1.3,0.7-2,0.3
		c0.3-0.2,0.7-0.2,1-0.2c-0.3,0-1.1-0.2-1.3,0.1c-0.9-0.3-0.7-1-0.7-1.6c0.1,1.3-1.3,1.3-2.1,1.7C178.1,44.3,182.5,43.4,184.1,43.4z
		 M178.2,62.5c-0.1-0.2-0.2-0.5-0.3-0.7l-0.6,0.7H178.2z M179.3,62.2c0.1,0.1-0.6,0.5-0.6,0.5v0.9C179.2,63.6,179.3,62.6,179.3,62.2
		z M180.2,49.8l-0.3-0.7l-0.3,0.1l0.3,0.5H180.2z M184.6,28.9c-0.8-0.3-1.3-0.3-2.6-0.3c0,0.4,0.4,1.1,0.1,1.5
		c-0.6-0.1-1.2-0.8-1.7-0.8c0,0.4-0.3,1-0.7,1.2c1-0.1,2.4-1,2.6,0.5c0.1-0.2,0.5-0.3,0.8-0.3c0.3-0.6-0.1-1.3,0.3-1.8H184.6z
		 M182,27.2c-0.2-0.2-0.8-0.3-1.6-0.3c0.1,0.2,0.6,0.6,0.6,0.9C181,27.3,181.7,27.2,182,27.2z M185.7,61.4c-0.8-0.1-1-1.3-1.8-1.4
		c0,0.1-0.1,0.4-0.4,0.7l-0.6-0.5c-1.1,0.5-1.3,0.5-2.1,1.3c0.2-0.2,0.5-0.7,0.8-0.7c0.4,0.3,0.4,0.7,0.4,1.1
		C183.1,62.5,184.7,62,185.7,61.4z M182.7,25v-0.6h-0.6V25H182.7z M183.8,61.1c-0.4,0.3-1,0.1-1.3,0.1c0,0.2-0.2,0.6-0.2,0.8
		C182.9,62,184,61.7,183.8,61.1z M183.3,64v-0.4h-0.6V64L183.3,64z M184.8,43.3l-0.9-0.3v0.3l0.8,0.3L184.8,43.3z M188,51.1
		c-1.7,0.2-1.7-0.3-3-1.1v-1c0.3,0,0.9,0.1,1.2-0.1c0.3,0.4,0.1,0.9,0.1,1.4C186.9,50.9,187.4,50.9,188,51.1z M185.7,63.8l-0.1-0.3
		l-0.6,0.3v0.3L185.7,63.8z M186,43.3c-0.3,0.3-0.4,1-0.8,1.3c0.5,0.1,0.9-0.7,1.4-0.7L186,43.3z M187.4,53v-0.5h-1.2V53L187.4,53z
		 M191.7,42.2c-0.6-0.6-1.1-1.4-2.1-1.2c0,0.5,0.1,1.1-0.6,1.2c-0.2,1.2-1.7,1.1-2.6,1c1,0.2,3.3,0.6,4.2,0.7
		C191.4,43.8,191.3,42.4,191.7,42.2z M188.6,52.8l-0.1-0.3l-0.5,0.3V53L188.6,52.8z M189.1,23.4v-0.6h-1.2v0.6H189.1z M189.7,27.8
		v-0.6h-0.6v0.6H189.7z M191,43.5c-0.2-0.2-0.9-0.7-1.4-0.5C190,43.2,190.7,43.3,191,43.5z M191.3,47.2l-0.2-0.3l-0.6,0.5l0.2,0.3
		L191.3,47.2z M191.6,28.3c-0.4,0-0.6,0.2-0.6,0.6C191.3,28.9,191.8,28.5,191.6,28.3z M192.5,50.4v-0.6H192v0.6H192.5z"/>
	<path class="st1" d="M210.4,76.6c0.2,3.1-22.5,3.4-22.9,0.1c0.2,0,0.4,1,0.8,0.9c0.3,0,0.3,0,0.2-0.1c-0.3-0.2,0.9-0.2,0.6,0.2
		c0.2,1.1,2-1,3.1-0.1c0.2-0.2,0.3-0.3,0.3-0.5c-0.5-0.4-2-0.9-2.4-0.4c0,0.2-0.2,0.2-0.5,0.2c-0.8,0-1.9-1.1-2.6-0.5
		c-0.2-0.7-1.3-2-0.3-2.6c-0.2-0.1-0.5-0.4-0.7-0.9c0.4-0.5,1.1-0.4,0.8-1.2c-0.2,0.2-0.5,0.2-0.7,0.5c0-0.3,0.2-0.3,0.3-0.5
		c-0.1,0-0.3-0.2-0.4-0.2c0.1-1.3-0.1-2.8,0.1-4.1c0.9-0.4,1.3-2-0.1-2V43.8c4.6-0.2,5.8,0.5,9.2-0.1c-2.7-0.8-6.4-0.4-9.2-0.6V42
		c0.3,0,0.8-0.1,1-0.5c0.2,0,0.4,0.6,0.5,0.7c0.3-0.1,1.7-0.9,1.6-0.2c-0.1,0.2,0,0.2,0.2,0.2c0.3,0,0.2-0.1,0.1-0.2
		c-0.1-0.6,1.1,0,1.2,0.2l0.4-0.5c1.9,0.1,0-1.5,0.9-2.5l1.1,0.1c0,0.2,0.2,0.4,0.2,0.6h-1c0,0.1-0.2,0.3-0.2,0.5
		c0.5,0.5,1.1,0.1,1.6,0.6c0.5-0.2,0.5-1.4,1.1-1.4c0.3,0,0.4,0.1,0.3,0.2c-0.1,0.1-0.1,0.2,0,0.3c0.2-0.6-0.2-1.2-0.3-1.8
		c0.2-0.1,0.4,0,0.6,0.3c0.4-2.9-0.1-5.5-0.1-9.2c-0.1,0.6-1,0.9-1.5,0.4c-0.3-0.6-0.2-1.6-1.2-1.5c-0.6-0.1-1.3,1-1.9,0.9
		c-0.3,0-0.5,0.1-0.5,0.2c0.1,0.3-0.9,0.2-0.8,0.1c0-0.1,0-0.2-0.2-0.3c-0.1,0.1-0.1,0.2-0.9,0.3v0.3c1,0,0.2-0.2,0-0.2
		c-0.2,0.2,0.3,0.7,0.3,0.9c-0.2-0.3-0.7-0.8-1.1-0.7c0-0.4,0.5-1,0.3-1.5l1.1-0.2v-0.7c-0.8-0.2-2.1-0.1-2.8,0.3
		c0.6-0.8,1.2-1.4,1.9-1.8c-0.5-0.2-0.5-1.1-1-1.3c0.6,0.2,1.6-0.1,2.1-0.3c-0.9-0.5-2.3-0.3-3.1-0.1v-2.8c0.1-0.1,0.9-0.5,1-0.6
		c-0.3-0.3-0.5-0.4-0.4-0.4v-2.7c-0.2-5.6,11.3-3.9,15.3-4.2c3.2,0,6.9,0.4,9,2.9c0,0,0,8.5,0,8.5l-1.5-0.2
		c-0.5,0.3-1.2,0.2-1.8,0.4c0.3,0.2,0.8,0.1,1.1,0.3c0.7-0.1,1.3-0.2,2.2-0.2v4.1c-0.6-0.2-0.9-0.2-1.1,0.1c1.4,0.1,1.1,0.8,1.1,1.8
		c-0.6,0-1.8-0.7-1.4,0.3c-0.9-0.2-1.2-1.3-2.3-0.9c0.1-0.3,0.7-0.4,0.8-0.7c0-0.3-0.9-0.1-0.9-0.4c-0.1-0.2-0.2-0.2-0.3-0.2
		c-0.2,0.7-0.4,1.1,0.1,1.8h-0.8c-0.3-0.2-0.3-0.8-0.3-1.1c-0.7-0.6-1.2,0.4-2,0.5c-0.3,0-0.3-0.1-0.2-0.2c0.2-0.5-1.4,0.1-1.8,0
		c-0.4,1.9-0.1,3.9-0.2,6.3c0.6,0.2,1,0.4,1.6,0.8c0-0.2,0.3-0.1,0.4-0.3c-0.1-0.2-0.7-0.5-0.7-0.7c0.3,0,0.6,0.4,0.8,0.6
		c0.6,0,1.6,0.1,1.8,0.9l0.5-0.6c-0.2-0.2-0.3-0.4-0.3-0.7c0.2,0,0.3,0.3,0.4,0.4c0.4,0.1,2.9,1.9,2.4,0.6l0.7,0.6
		c0.3-0.2,0.3,0,0.6-0.3c-0.2-0.2-0.4-0.1-0.7-0.1c0.1-0.3,1.1-0.6,0.2-0.8c0.1-0.2,0.6-0.4,0.8-0.6c0.1,0.2,0,0.8-0.3,0.9
		c0.9,0.7,0.1,2.1,0.4,2.9c-0.4-0.1-0.7,0-1,0.1c0.2,0.2,0.7,0.1,1,0.1V76.6z M187.4,33.2c-0.2,0-0.9,0.2-1.2,0.2v-2
		c0.2-0.1,1,0.5,1.2,0.5V33.2z M187.4,37.2l-1.1,0.1c0-0.6,0.3-1.1,0.8-1.4L187.4,37.2z M187,38.2l-0.3,0.6l-0.3-0.1l0.3-0.5
		L187,38.2z M191.9,41.4c-0.2-0.1-0.6-0.7-0.5-1c-1.3,0.5-1.8-0.6-2.3-1.4v1.1c0.2,0,0.2,0.1,0.3,0.1c0,0,0.1,0.1,0.1,0.1
		c-0.8,0.5-1.8,0.4-2.8,0.4c0.6,0.8,1.3,1.1,1.9,0.7c0.2-0.2-0.1-0.6,0.5-0.6c0.8,0,0,0.5,0.7,0.5C191,41.1,190.8,42.2,191.9,41.4z
		 M188,19.8l-0.3-0.2l-0.6,0.7l0.3,0.3L188,19.8z M187.9,17.6l-0.3-0.1l-0.3,0.5l0.3,0.1L187.9,17.6z M189.3,38.3
		c-0.5,0.7-1.1,0.6-1.8,0.3C188.1,37.2,188.1,36.4,189.3,38.3z M188.5,72.4v-0.6h-0.6v0.6H188.5z M189.1,26.7v-0.6h-1.2v0.6H189.1z
		 M189.1,54.2v-0.6h-0.6v0.6H189.1z M189.1,19v-0.6h-0.6V19H189.1z M190.5,60.4l-0.1-0.3l-1.2,0.5V61L190.5,60.4z M190.8,36.8
		c0.2,0.2,0.5,0.6,0,0.9V36.8z M192.3,31.6c-0.2,0-0.8-0.1-0.8-0.5C191.5,31.4,192.2,31.3,192.3,31.6z M192.5,74.6H192V74h0.6V74.6z
		 M192,39.2l-0.6,0.1v-1h0.6V39.2z M192.2,30.3c0.2,0-0.2,0.7-0.3,0.6C191.9,30.8,192,30.3,192.2,30.3z M193.1,20.6v-0.6h-0.6v0.6
		H193.1z M193.1,68.5V68h-0.6v0.6H193.1z M193.7,14v-0.6h-1.2V14H193.7z M194,36h-0.3l-0.3-0.5l0.3-0.1L194,36z M196,21.7v-0.6h-1.7
		v0.6H196z M195.4,25v-0.6h-1.2V25H195.4z M194.9,39.6c-0.4-0.1-0.3-0.8,0-0.9V39.6z M198,19.5c-0.4-0.4-1-0.7-1.4-1.1
		c-0.1,0.2,0.5,0.9,0.5,1.1H198z M201.2,24.1c-1.7-0.4-3-0.6-4.6,0.3v47c0.6-0.1,1.5,0.5,2,0.5c0.6,0,2-0.5,2.6-0.5V24.1z
		 M204.2,21.3c-0.9,0-2.4-0.7-3-0.1H199L204.2,21.3z M207.1,40.7c-2.4-1.3-2.7-0.4-5.3-0.3C203.5,40.4,205.5,40.4,207.1,40.7z
		 M206.2,25.3c-0.6-0.2-1.5-0.4-2.1-0.8c0.7,0.6-0.6,0.5-0.6,0.2c-0.1-0.5-1.4,0-1.5,0.4C203.3,25.1,204.7,25.1,206.2,25.3z
		 M203.8,44.3c-0.5-0.3-1.2,0-1.7-0.1C202.4,44.3,203.4,44.3,203.8,44.3z M203.8,29.3c-0.3,0-1-0.3-1-0.7c0,0.6,0.2,0.8,0.2,1.3
		C203.1,29.6,203.6,29.5,203.8,29.3z M203.6,26.8c0,0-0.6-0.1-0.7-0.3c0,0.5-0.2,1.5,0.1,2C203.1,27.8,203.1,27.3,203.6,26.8z
		 M205.5,19.7c-0.8,0-1.3-0.1-2.2-0.2c0.2,0,0.4,0.1,0.4,0.3C204.1,20.4,205.1,19.7,205.5,19.7z M204.6,21.4l-0.3,0.6
		c0.4-0.1,0.9-0.6,1.4-0.3L204.6,21.4z M205.3,30v-0.6h-1.2V30H205.3z M205.1,27.7l-0.3-0.1l-0.3,0.5l0.3,0.1L205.1,27.7z
		 M205.7,22.5c-0.3,0-1,0.6-1.2,0.7c0.2,0.2,0.3,0.3,0.3,0.6C205.1,23.4,205.7,23,205.7,22.5z M206.9,34.4c-0.7,0-1.6-0.4-2.4-0.4
		c0.8-0.4,1.1-1.1,2.2-1.1c0.3,0.1-0.4,0.3-0.6,0.6C206.1,33.9,206.3,34.2,206.9,34.4z M206.4,43.7l-0.1-0.3l-1,0.5v0.3L206.4,43.7z
		 M206.2,35.5l-0.3,0.6l-0.3-0.1l0.3-0.6L206.2,35.5z M206.5,32.6l-0.7,0.3v-0.3l0.6-0.3L206.5,32.6z M206.6,42.9l-0.3-0.3l-0.2,0.2
		l0.3,0.3L206.6,42.9z M210.1,44.1c-0.9-1-2.6,0-3.7,0.1c0.6,0,1.6-0.4,2.1,0.1C208.8,44.8,210.1,44.5,210.1,44.1z M207.2,29.4
		c0-0.3-0.2-0.4-0.6-0.4C206.6,29.2,207.2,29.2,207.2,29.4z M209.4,36c-0.2,0-0.2,0.6-0.2,0.7c-0.9,0.2-1.7,0.2-2.6,0
		c0.1-0.1,0.2-0.4,0.3-0.6c0.2,0,0.5,0.1,0.8,0.4C208.4,36.1,208.4,35.7,209.4,36z M208,34c-0.3,0.4-0.6,0.5-0.9,0.5
		C207.1,33.9,207.4,33.3,208,34z M208.1,40.5v-0.6h-0.6v0.6H208.1z M208.2,31.8c0.2,0-0.2,0.7-0.3,0.7
		C207.8,32.3,207.9,31.8,208.2,31.8z M209.6,22.3c-0.1,0-0.2-0.4-0.2-0.6h-1c0.2-0.1,0.4,0,0.6,0.2c-0.1,0.1-0.2,0.2-0.2,0.4H209.6z
		 M209.3,64.7v-0.6h-0.6v0.6H209.3z M210.7,35.4c-0.4-0.2-0.9,0.1-1.5,0c-0.3-0.2-0.4-0.8-0.6-1.1c0.5-0.7,1.5-1.2,1.8-2.2
		L210.7,35.4z M209.3,40.5v-0.6h-0.6v0.6H209.3z M209.9,24.2c-0.5,0.4-1,0.5,0,0.7V24.2z M210,22.7c-0.2,0.2-0.4,0.3-0.6,0.3
		C209.5,23.1,210.2,23,210,22.7z"/>
	<path class="st1" d="M242.8,44.8c-0.7,0-1.4,0.2-1.7,0.4v0.1c0,0,0.9,0.2,1.2,0v25.4h-0.1c-0.2-0.2-0.3-0.1-0.5,0
		c2.1,2.8-0.9,6.1-3.9,6.5c-1.2,0.2-13.9,0.1-15.5,0.1c-0.2-0.1,0-0.4-0.5-0.4c-0.6,0-0.4-0.1-0.3,0.3c-0.1-0.6-1.3-0.9-0.1-1.3
		c-0.2-0.1-0.4-0.4-0.6-0.7c-0.5,0.3-0.3,0.7-0.1,1.1c-0.8,0.7-0.6,0.1-0.4,1.5h-1.6V77c0,0,0.2-0.2,0.1-0.3c-1,1.5-2.6-0.3-4,0
		c0-0.2-0.1-0.7-0.4-0.9c-0.8,0.2-1.3,0.7-1.5,1.5c-0.2,0-0.4-0.2-0.8-0.5c0,0-0.1,0.1-0.1,0.1c0,0-0.1,0.2-0.1,0.2
		c-2.7,0.2-5.6-0.2-6.8-2.6c-0.9-2.1-1.7-5.4-0.1-7.3c0.1,0.3-0.1,0.4-0.3,0.5c1,0.3,1.8-0.3,2.7,0.6c0.4-0.3,0.7-0.8,1-1.1
		c0,0.7,0.1,1-0.6,1.2c0.3,0.5,0.7,0.4,0.9,0.9c-0.2,0-1,0.1-1-0.2c-0.3,0.7-0.1,1-0.4,1.7c0.7,0.8,1.9,0.1,2.2-0.7
		c0.7,0.9,1.7,0.1,2.4-0.3c-0.2-0.3-0.7-0.2-0.6-0.7c0.5,0,0.9,0.1,1.2,0.2c0.3-0.5-0.1-0.9,0-1.4c-0.7-0.3-1.8,0.5-2-0.1
		c0.1-0.5,1-0.2,1.4-1c-0.4-0.7-1.4-1.3-1.7-1c0.1,0.1,0.1,0.1-0.2,0.1c-0.6,0.1-0.5-0.6-0.7-0.8c-0.5,0.6-1.8,0.8-2.5,0.4
		c-0.5,0.7-0.3,1.3-1.5,1.5c-0.1,0.1-0.4,0-0.6,0.1l0.6-0.7c-2.2,0.2-0.8-19.8-1.2-20.8c0.3,0,1.2,0.2,1.6,0.2
		c0.3-0.2,0.4-0.4,0.4-0.7l-0.3-0.4c-2.1,1.1-1.3-3.6-1.6-4.6c0.2-3.1-0.4-8.3,0.6-11c0-0.2,0.5-0.5-0.1-0.5c-0.6,0-0.2,0.2-0.6,0.2
		c0.1-2.9,0.6-6.3,0.3-9.2c0.5,0,1.1-0.7,1.5-0.9c-0.2,0.2-0.2,0.4-0.1,0.7c0.1-0.2,0.1-0.7,0.1-0.9c-0.5-0.1-1,0.3-1.5,0.5
		c0.5-0.7,0.4-1.7,0.6-2.5h0.8c-0.4-3.4,9.8-2.4,11.9-2.2c0,0,3,0,3,0c0.3-0.2,1.7-0.6,1.7,0.3c0.3-0.3,0.1-0.3,0.1-0.8h1.3
		c0,0.5,0.1,0.7,0.2,0.9c0.3-0.1,0.2-0.4,0.1-0.9c2.1,0.2,13.4-0.6,15,0.8C245.7,17.1,241.8,40.2,242.8,44.8z M204.7,22.3v-0.6h-0.6
		v0.6H204.7z M205.7,42.6c-0.4,0.2-1.1,0.7-1.2,1.1h0.8C205.4,43.5,205.9,42.8,205.7,42.6z M205.4,35.3l-0.3-0.1l-0.3,0.8l0.3,0.1
		L205.4,35.3z M205.4,17.8l-0.3-0.1l-0.3,0.5l0.3,0.1L205.4,17.8z M204.7,20.2v0.9c0.2-0.3,0.5-1,0.6-1.3L204.7,20.2z M204.7,37.7
		v-1.1h0.6v1.1H204.7z M205.7,26.1l-0.3-0.7l-0.3,0.1l0.3,0.5H205.7z M205.5,21.6c-0.3,0.6-0.3,1.3-0.3,1.8
		C205.4,22.9,205.2,22.2,205.5,21.6z M205.9,24.3l-0.3-0.1l-0.3,0.6l0.3,0.1L205.9,24.3z M205.8,34.8l-0.3-0.3l-0.2,0.3l0.3,0.3
		L205.8,34.8z M206.5,21.1l-0.6,0.5c0.1,0.1,0.4,0.3,0.6,0.3L206.5,21.1z M206.6,17.2l-0.3-0.1l-0.3,0.5l0.3,0.1L206.6,17.2z
		 M206.4,22.8v-0.6h-0.2l-0.1,0.6H206.4z M206.8,32.8l-0.3-0.3l-0.3,0.3l0.3,0.3L206.8,32.8z M206.8,37.7l0.1-1.1l-0.4,0.1l-0.1,1
		H206.8z M206.6,34.1c0,0.2-0.3,0.6-0.1,0.9C206.8,34.6,206.9,34.4,206.6,34.1z M206.7,38.8l0.1-0.6h-0.4v0.6H206.7z M207.3,51.7
		l-0.3-0.1l-0.3,0.5l0.3,0.1L207.3,51.7z M207.3,42.2c0,0.2-0.5,0.2-0.6,0.1C206.9,42.9,207.2,42.4,207.3,42.2z M207.5,39.2
		l-0.3-0.1l-0.3,0.5l0.3,0.1L207.5,39.2z M207.5,47.6l-0.1-0.6l-0.3,0.1l-0.1,0.5H207.5z M207.3,21.9l0.6,0.5
		c-0.1-0.5,0.5-1.5,0.1-2L207.3,21.9z M207.8,46.3c0,0.2-0.4,0.2-0.6,0.2C207.4,46.8,207.8,46.6,207.8,46.3z M207.6,46.3v-0.9h-0.3
		l-0.1,0.8L207.6,46.3z M207.6,50.4v-0.6h-0.2l-0.1,0.6H207.6z M208.1,18.4v-0.6h-0.6v0.6H208.1z M208.4,38.2c0-0.2-0.4-0.6-0.3-0.7
		c0,0.1-0.3,0.9-0.3,1C207.9,38.4,208.2,38.2,208.4,38.2z M234.1,42.9c0.1-0.5-0.5-0.6-0.7-0.9c1.1-5.9-0.7-21.3-9.5-20.2
		c-4.4-0.2-4.7-0.9-7.8,3.1c-3.5,3.9-3.1,9.2-3.9,13.8c0.2,1.1,0.7,2.8-0.2,3.8c0.2,1.6,0.4,4,0.1,5.6c-0.2-1.8-0.1-3.4-0.2-5.2
		c-1,0.3-0.8-1-0.9-1.5c-0.6,0.2-0.9,0.3-1,0.1c0.2-0.3,0.1-1-0.1-1.3c-0.5,1.3-0.8,2.7-1,4c-0.4,0.1-0.7,0.7-1,0.9l0.6,0.6
		c0-0.3-0.5-0.5,0.1-0.5c1,0,1.2,1.4,1.6,2c0.2,0,0.5-0.2,0.6-0.3c-0.4,0-0.7-0.2-0.8-0.5c0.8,0,1,0.4,1.5,0.8c-1,1.1,0.7,1.5,1,2.4
		c-0.4,5.9-0.2,13.2,3.3,18.3c2.8,3.3,5,3.3,9.1,3.1c8-1.3,8.8-13,8.8-19.2C234.6,52.4,234,43.3,234.1,42.9z M209.6,69.8l-0.3,0.1
		l-0.6-0.7l0.3-0.3L209.6,69.8z M211,60.3v-1c-0.4-0.7-1.3-0.9-1.8-1.2c-0.1,0.4,0.4,0.7,0.4,0.9c-0.3,0.4-0.9,0.7-0.8,1.3H211z
		 M210.3,45l-0.8,1l-0.3-0.2l0.8-1L210.3,45z M212.8,69.6h-0.6v-1.3l0.6,0.1V69.6z M228.4,54.2c0.4,0.2,0.3,0.5,0.1,0.8
		c-0.7,1.3-0.7,3-0.7,4.4c0.4-1-0.2-1.8-0.8-2.6c0.2-0.7-0.6-1-0.8-1.7c-0.4,0.1-0.6,0.6-1,0.9c0,0.3,0.1,0.5,0.3,0.7
		c0.2-0.3,0.4-0.4,0.6-0.4c-0.1,0.2-0.2,0.7-0.4,0.8c-1.9-0.5-2.3-0.2-3,1.5c0.1,0.1,0.2,0.2,0.2,0.3c0,0.4,1,0.1,1.2,0.1
		c-0.2,0.3,0,1,0,1.3h0.4c0.2,0.2,0.4,0.3,0.6,0.4c0.2-0.3,0.1-0.3,0.4-0.6c-0.2-0.2-0.5-0.2-0.7-0.4c1.2-1.1,1.5,0.4,2.3,1.2
		c0.2,0,0.3-0.4,0.5-0.4c-0.6,2-0.5,4.2-2.6,5.2c-1.7,0.4-4.1,1-5.4-1.1c-1.2-2.6-1.2-5.9-1.9-8.7c0.2-1.3,0.2-2.6-0.5-3.8
		c-0.1-3.3,0.7-6.9-0.3-10.1c1.9-4.2,0.5-9,2.6-13.3c2.9-3.1,8.6-0.8,7.7,3.8c1,0.7,0.2,1.8,0.4,2.7c0,0.9,0.2,3.1,0.1,4.2
		c0,0.4,1,0.7,0.3,1.1V54.2z M221.1,46.7c0.1-0.6-0.6-0.7-1-0.7c0,0.8-0.2,1.4-0.4,2.2c-0.6,0-0.7-0.2-1.2-0.2v1.3h0.9
		c0.3-0.1,0.8-0.7,1.1-0.7C220.6,48,221.1,47.3,221.1,46.7z M219.1,72.4v-0.6h0.6v0.6H219.1z M220.6,43.1c-0.5,0.2-1.1,0.3-1.5,0.5
		c0.5,0.2,1.3,0.9,1.5,1.5C220.7,44.8,220.6,43.3,220.6,43.1z M220.9,42.1l-1.6-0.5l-0.1,0.3l1.5,0.5L220.9,42.1z M220.2,37.7
		l-0.3-0.3l-0.2,0.2l0.3,0.3L220.2,37.7z M221.1,73.6c-0.3-0.3-0.2-0.9-0.2-1.3h-0.9C219.9,72.8,220.7,73.5,221.1,73.6z M220.7,49.8
		l-0.1-1.1h-0.3l-0.1,1.1H220.7z M221.5,39c-0.2-0.1-0.6-0.8-0.9-0.7C220.9,38.8,221.2,39,221.5,39z M223.2,16.8v-0.6h-0.6v0.6
		H223.2z M225,48.1c-0.2-0.2-0.3-0.8-0.3-1c-0.6,0.5-1,0.2-0.8,1.3l0.1-0.9C224.6,47.6,224.7,47.9,225,48.1z M224.6,16.8h-0.3
		l-0.3,0.7l0.3,0.1L224.6,16.8z M225.1,49.3c-0.3,0-0.5-0.1-0.5-0.5c-0.2,0-0.5,0.4-0.6,0.6c0.3,0,0.5,0.2,0.5,0.5
		C224.7,49.9,225.2,49.4,225.1,49.3z M225.1,38.3c-0.4,0.1-0.7-0.5-0.7-0.7c-0.2,0.3-0.1,0.8-0.1,1.1
		C224.6,38.7,224.9,38.3,225.1,38.3z M224.4,39.1c0,0.1-0.2,0.5-0.3,0.6C224.4,39.7,224.7,39.3,224.4,39.1z M224.8,21.1l-0.3-0.3
		l-0.3,0.2l0.3,0.3L224.8,21.1z M224.9,43.4l-0.3-0.1l-0.3,0.6l0.3,0.1L224.9,43.4z M225.1,62.8l-0.3-0.3l-0.2,0.2l0.3,0.3
		L225.1,62.8z M225.4,32.3c-0.2,0.2-0.2,0.3-0.3,0.6C225.3,32.9,225.7,32.4,225.4,32.3z M228.3,46.8c-0.2-0.2-0.5-0.8-0.5-1
		c-0.3,0-0.4,0.6-0.7,0.7C227.3,46.5,228,46.8,228.3,46.8z M229.6,70.9c-0.2,0-0.9-0.2-1.2-0.2C228.7,70.8,229.4,71.1,229.6,70.9z
		 M237.1,47.1c-0.6-0.5-1.4-0.3-2.4-0.3v2c0.4-0.1,0.8-0.7,1.1-1c-0.2-0.1-0.6-0.5-0.3-0.7H237.1z M235.7,24.8l-0.3-0.3l-0.2,0.3
		l0.3,0.3L235.7,24.8z M236.6,23.9l-0.6-0.3l-0.1,0.3l0.6,0.3L236.6,23.9z M236.4,22.8v-0.6h-0.6v0.6H236.4z M236.9,39.8l-0.6-0.3
		l-0.1,0.3l0.6,0.3L236.9,39.8z M236.9,44.9h-0.3l-0.3,0.8l0.3,0.1L236.9,44.9z M237.2,44.3c-0.3,0-0.5-0.1-0.5-0.4
		c0,0.2-0.3,0.6-0.3,0.7C236.5,44.5,237.1,44.3,237.2,44.3z M237,31.6v-0.6h-0.6v0.6H237z M239,68.5c-0.9-1.5,0.8-1-1.4-2.2
		l-0.6,0.6c0.7,1.2,1.9,2.8,3.3,1.7H239z M237.3,29.6c-0.2-0.2-0.3-0.3-0.3-0.4c-0.1,0-0.1-0.1,0-0.2
		C236.7,29,237.1,29.7,237.3,29.6z M237.5,40.1l-0.3-0.1l-0.3,0.6l0.3,0.1L237.5,40.1z M237.1,32.3c-0.2,0.1-0.3,0.7-0.1,0.9
		C237.1,33,237.4,32.5,237.1,32.3z M238,48l-0.3-0.1l-0.3,0.6l0.3,0.1L238,48z M238,52.2l-0.3-0.1l-0.3,0.6l0.3,0.1L238,52.2z
		 M240.5,70.9v-0.3l-2.3-0.2v0.4L240.5,70.9z"/>
</g>
<g>
</g>
<g>
</g>
<g>
</g>
<g>
</g>
<g>
</g>
<g>
</g>
</svg>
